<svg xmlns="http://www.w3.org/2000/svg" viewBox="0 0 315 268.34">
  <defs>
    <style>
      .a{fill:#83bfb3;}.b{fill:#44789c;}.c{fill:#86a8bc;}
    </style>
  </defs>
  <path d="M315 170.47c-2.86 3.1-6.25 5.77-9.37 8.6-3.75 3.4-7.6 6.68-11.5 9.92-7.22 6-14.6 11.8-21.85 17.8a20.17 20.17 0 0 0-7.72-8.9c-4.87-3.2-10.75-4.9-16.66-5.8 3.64-4.7 9.77-6.7 15.06-9 6.16-2.7 11.08-7 16.35-11.1s10.9-7.66 17.6-8.15c6.3-.48 14 1.32 18.1 6.45z" class="a"/>
  <path d="M307.18 157.74a17 17 0 0 1-2.54 4.26 38 38 0 0 0-5.33-.66c-7.4-.43-14 3.12-19.8 7.4s-11 9.2-17.7 12.13c-6.2 2.73-12.8 5-16.7 10.93v.05c-1.92-.2-3.85-.33-5.73-.42l-1.92-.07c4.4-4.76 9.9-8.3 15.4-11.7a174 174 0 0 0 17.45-12.13c5.6-4.48 11.3-9.18 18.1-11.7 6-2.2 14.1-2.94 19 1.9zm-22.24-3.5c-5.2 2.3-9.88 5.96-14.27 9.44-2.9 2.3-5.76 4.67-8.76 6.84s-6.4 4.3-9.8 6.35c-6.6 4.1-13.3 8.35-18.3 14.47-4.8 0-9.7.36-14.6.72 4.3-4.3 9.4-7.8 14.4-11.38a162.74 162.74 0 0 0 15.9-13.44c5-4.64 10.28-9.12 16.7-11.6a33.54 33.54 0 0 1 18.9-1.4z" class="a"/>
  <path d="M203.4 221.5a3.9 3.9 0 0 1-.77-.12q-2.6-.24-5.23-.4l-4.37-.2c-.07 0-.63.05-.7 0-2.35-.05-4.7 0-7.07.05l-2.5.14c-2.18.15-4.35.36-6.5.67a92.5 92.5 0 0 0-28 8.73c-1.54.75-2.9-1.53-1.35-2.28a93.9 93.9 0 0 1 31.3-9.4 123.58 123.58 0 0 1 25.1 0h.5l3.7.4c8.2 1 16.3 2.5 24.56 3.2s17 .9 25-1.8c6.2-2.2 15.3-5.1 13.27-13-1.94-7.7-10.4-9.3-17.34-11.2-9.24-2.6-18.9-2.8-28.44-2.5s-18.96-1.4-28.4-1.7c-8.94-.3-18-3.8-25.8-8.3a1.36 1.36 0 0 1-.3-.17l-.15-.1-.1-.05c-12.87-8.83-26.8-20.3-43.17-20.8-8.67-.28-17 2.05-25.4 3.76a71 71 0 0 1-12.58 1.8c-4.2.1-8.35 0-12.53 0-9.77-.06-19.46.5-28.66 4a115.7 115.7 0 0 0-24.9 13.14c-7.77 5.4-14.36 11.9-21.16 18.4l-1.4 1.2 35.65 53.1a60.45 60.45 0 0 1 6.65-4.2 53.66 53.66 0 0 1 26.9-6.55c9.65.14 19.34 1.85 28.74 4 10.5 2.4 20.9 5.3 31.33 8s20.8 5.35 31.38 7.13c10.25 1.72 21.2 2.74 31.44.44a1.5 1.5 0 0 1 .3 0c9.7-5.8 17.74-13.75 25.73-21.65 4-3.94 8-7.9 12.2-11.6a82.12 82.12 0 0 1 10.2-8.12c-10.2 0-20.5-2.08-30.66-3.4z" class="a"/>
  <path d="M219.92 186.8h.22v-.2z" class="a"/>
  <path d="M162.46 147.72c-2.83-21.93 6.37-40.64 15.5-52 19.8-24.55 18.57-39.23 16.62-51.83C205 60 211.5 79.3 213 96.5c.74 14.1-9.64 46.75-50.5 51.22m39.8-106.4C195.3 21.7 215.8.62 232.7 0c10.12 5.12 18.82 18.55 18.38 36.78-1.32 22.46-17.73 41.82-35.58 59.65-1-21.75-5.76-35.6-13.2-55.1" class="b"/>
  <path d="M148.23 64.43c-30-8.12-37.37-33.63-36-50.8 29.1-11.42 60.44.3 78.53 24.7 12.68 17.1 20.62 39 22.24 58.16-8.7-11.2-19.7-17.6-33.7-22.7-9.57-3.5-18.4-5.8-31-9.5" class="b"/>
  <path d="M212.95 96.38a62.85 62.85 0 0 0-23.34-18.3c7.5-14.6 6.4-25 5-34.27a1.8 1.8 0 0 1 .3.4c5.5 7 17.1 32 18.2 52.2" class="c"/>
</svg>
