<svg xmlns="http://www.w3.org/2000/svg" viewBox="0 0 160 34"><defs><style>.a,.c{fill:#d5e1e6;}.a,.b{fill-rule:evenodd;}.b{fill:#a0b8c9;}.d{fill:#fff;}</style></defs><title>logo</title><path class="a" d="M11.59,34a16.16,16.16,0,0,1,3.56-12c4.56-5.63,4.28-9,3.83-11.92a27.41,27.41,0,0,1,4.23,12.11C23.38,25.46,21,33,11.59,34h0Z" transform="translate(0)"/><path class="a" d="M20.75,9.51C19.14,5,23.86.14,27.75,0,30.07,1.18,32.07,4.27,32,8.47c-0.3,5.17-4.08,9.63-8.18,13.73-0.23-5-1.33-8.2-3-12.68h0Z" transform="translate(0)"/><path class="a" d="M8.32,14.83A10.88,10.88,0,0,1,0,3.14c6.69-2.63,13.9.06,18.06,5.68a27.37,27.37,0,0,1,5.11,13.39A16.12,16.12,0,0,0,15.46,17c-2.2-.79-4.24-1.32-7.14-2.17h0Z" transform="translate(0)"/><path class="b" d="M23.21,22.21A14.46,14.46,0,0,0,17.84,18,11.61,11.61,0,0,0,19,10.11L19,10.19A27.23,27.23,0,0,1,23.21,22.21Z" transform="translate(0)"/><path class="c" d="M41.27,18.94l0.41,1.79h0.14l0.3-1.82,1.75-6.44H47l-3.5,10.38q-0.44,1.29-.84,2.36a10.71,10.71,0,0,1-.89,1.85,4.18,4.18,0,0,1-1.07,1.21,2.32,2.32,0,0,1-1.39.43,4,4,0,0,1-1.91-.39l0.55-2.39a1.85,1.85,0,0,0,.69.14,1.52,1.52,0,0,0,1-.45A3,3,0,0,0,40.37,24l-4.82-11.5h3.6Z" transform="translate(0)"/><path class="c" d="M47.93,9.23a1.51,1.51,0,0,1,.5-1.14,1.91,1.91,0,0,1,1.37-.47,2.08,2.08,0,0,1,1.42.47,1.46,1.46,0,0,1,.54,1.14,1.39,1.39,0,0,1-.54,1.12,2.15,2.15,0,0,1-1.42.45,2,2,0,0,1-1.37-.45A1.44,1.44,0,0,1,47.93,9.23Zm0.44,3.24h3V24h-3V12.48Z" transform="translate(0)"/><path class="c" d="M53.71,9.23a1.51,1.51,0,0,1,.5-1.14,1.91,1.91,0,0,1,1.37-.47A2.08,2.08,0,0,1,57,8.1a1.46,1.46,0,0,1,.54,1.14A1.39,1.39,0,0,1,57,10.35a2.15,2.15,0,0,1-1.42.45,2,2,0,0,1-1.37-.45A1.44,1.44,0,0,1,53.71,9.23Zm0.44,3.24h3V24h-3V12.48Z" transform="translate(0)"/><path class="d" d="M58.9,12.48h1.8V11.83A8.61,8.61,0,0,1,60.87,10a3.11,3.11,0,0,1,.56-1.28,2.35,2.35,0,0,1,1-.74A4.29,4.29,0,0,1,64,7.74a8.16,8.16,0,0,1,1.3.09,5.53,5.53,0,0,1,1.19.34L66.07,9.72a4,4,0,0,0-1-.3,6.18,6.18,0,0,0-.89-0.07,2,2,0,0,0-.93.18,1.08,1.08,0,0,0-.48.54,2.73,2.73,0,0,0-.18.87q0,0.52,0,1.21v0.32h3.07v1.61H62.54V24H60.7V14.09H58.9V12.48Z" transform="translate(0)"/><path class="d" d="M73.05,14.25A4.18,4.18,0,0,0,71.74,14a2.2,2.2,0,0,0-1.57.54,2.35,2.35,0,0,0-.71,1.37V24H67.61V12.48H68.9l0.35,1.4h0.09a3.55,3.55,0,0,1,1-1.21,2.66,2.66,0,0,1,1.56-.43,5.67,5.67,0,0,1,1.5.23Z" transform="translate(0)"/><path class="d" d="M74.87,13.33a6.65,6.65,0,0,1,2-.78,11.44,11.44,0,0,1,2.43-.25,4.82,4.82,0,0,1,1.93.32,2.69,2.69,0,0,1,1.11.84,2.87,2.87,0,0,1,.51,1.14A6.19,6.19,0,0,1,83,15.84q0,1.38-.07,2.69T82.87,21q0,0.85.07,1.61A7.57,7.57,0,0,0,83.2,24H81.84l-0.48-1.61H81.24a3.83,3.83,0,0,1-.52.63,3.3,3.3,0,0,1-.75.55,4.71,4.71,0,0,1-1,.4,4.89,4.89,0,0,1-1.31.16,4,4,0,0,1-1.37-.23,3.2,3.2,0,0,1-1.1-.66,3.06,3.06,0,0,1-.73-1,3.31,3.31,0,0,1-.27-1.36,3.19,3.19,0,0,1,.41-1.69,3,3,0,0,1,1.16-1.08,5.76,5.76,0,0,1,1.8-.58,14.29,14.29,0,0,1,2.32-.17h0.63a4.47,4.47,0,0,1,.63,0q0.07-.69.07-1.24a2.47,2.47,0,0,0-.51-1.77,2.6,2.6,0,0,0-1.84-.51A6.46,6.46,0,0,0,78,14q-0.45.06-.92,0.17a7.67,7.67,0,0,0-.9.26,4.46,4.46,0,0,0-.75.34Zm3.27,9.23a3.58,3.58,0,0,0,1.15-.17,3.34,3.34,0,0,0,.88-0.44,2.78,2.78,0,0,0,.61-0.59,2.61,2.61,0,0,0,.36-0.62V18.83l-0.66,0H79.83a11.85,11.85,0,0,0-1.39.08,4.43,4.43,0,0,0-1.2.3,2.11,2.11,0,0,0-.83.6,1.46,1.46,0,0,0-.31,1A1.7,1.7,0,0,0,76.67,22,2.12,2.12,0,0,0,78.15,22.56Z" transform="translate(0)"/><path class="d" d="M92.51,24V17.47a13.75,13.75,0,0,0-.08-1.6,3.46,3.46,0,0,0-.31-1.14A1.55,1.55,0,0,0,91.46,14a2.36,2.36,0,0,0-1.12-.23,2.51,2.51,0,0,0-1.76.64,3.41,3.41,0,0,0-1,1.61V24H85.76V12.48H87l0.35,1.4h0.09a5.43,5.43,0,0,1,1.44-1.21,4.25,4.25,0,0,1,2.13-.47,3.46,3.46,0,0,1,1.81.43A2.78,2.78,0,0,1,94,14.11a3.73,3.73,0,0,1,1.46-1.4,4.35,4.35,0,0,1,2.11-.51,5.32,5.32,0,0,1,1.64.22,2.3,2.3,0,0,1,1.11.77,3.55,3.55,0,0,1,.63,1.5,12.12,12.12,0,0,1,.2,2.39V24H99.26V17.06a11.32,11.32,0,0,0-.08-1.44,2.64,2.64,0,0,0-.32-1,1.48,1.48,0,0,0-.67-0.6,2.7,2.7,0,0,0-1.12-.2,2.43,2.43,0,0,0-1.8.64,3.73,3.73,0,0,0-.92,1.84V24H92.51Z" transform="translate(0)"/><path class="d" d="M111.88,23.06a5.22,5.22,0,0,1-1.74.87,7.55,7.55,0,0,1-2.22.32,5.64,5.64,0,0,1-2.28-.43A4.06,4.06,0,0,1,104,22.61a5.26,5.26,0,0,1-.92-1.9,9.5,9.5,0,0,1-.3-2.48,6.74,6.74,0,0,1,1.31-4.49,4.66,4.66,0,0,1,3.76-1.54,7.27,7.27,0,0,1,1.57.17,3.31,3.31,0,0,1,2.42,2,5.84,5.84,0,0,1,.39,2.34,11.41,11.41,0,0,1-.14,1.68h-7.4a7,7,0,0,0,.21,1.79,3.49,3.49,0,0,0,.64,1.32,2.79,2.79,0,0,0,1.14.83,4.54,4.54,0,0,0,1.72.29,4.69,4.69,0,0,0,1.57-.28,3.33,3.33,0,0,0,1.18-.64Zm-4-9.25a3.2,3.2,0,0,0-2.18.71,3.57,3.57,0,0,0-1,2.44h5.72a3.53,3.53,0,0,0-.67-2.45A2.49,2.49,0,0,0,107.91,13.81Z" transform="translate(0)"/><path class="d" d="M122.6,12.48l2.65,6.72,0.58,2.21h0l0.44-2.25,2.05-6.67h1.75l-3.87,11.76h-0.9l-3-7.59-0.44-1.89h-0.07l-0.46,1.91-2.9,7.57h-0.9l-4-11.76h2l2.28,6.7,0.39,2.23h0l0.55-2.28,2.47-6.65h1.34Z" transform="translate(0)"/><path class="d" d="M131.21,18.23a6.79,6.79,0,0,1,1.3-4.48,4.61,4.61,0,0,1,3.75-1.55,5.49,5.49,0,0,1,2.25.43,4.09,4.09,0,0,1,1.58,1.22,5.27,5.27,0,0,1,.92,1.91,9.54,9.54,0,0,1,.3,2.47,6.79,6.79,0,0,1-1.3,4.48,4.61,4.61,0,0,1-3.75,1.55,5.49,5.49,0,0,1-2.25-.43,4.07,4.07,0,0,1-1.58-1.22,5.27,5.27,0,0,1-.92-1.91A9.5,9.5,0,0,1,131.21,18.23Zm1.91,0a8,8,0,0,0,.17,1.68,4.41,4.41,0,0,0,.54,1.4,2.9,2.9,0,0,0,1,1,2.72,2.72,0,0,0,1.45.37q3.14,0,3.14-4.42a8.09,8.09,0,0,0-.17-1.7,4.41,4.41,0,0,0-.54-1.4,2.69,2.69,0,0,0-2.42-1.31Q133.12,13.79,133.12,18.23Z" transform="translate(0)"/><path class="d" d="M149,14.25a4.18,4.18,0,0,0-1.31-.23,2.2,2.2,0,0,0-1.57.54,2.35,2.35,0,0,0-.71,1.37V24h-1.84V12.48h1.29l0.35,1.4h0.09a3.55,3.55,0,0,1,1-1.21,2.66,2.66,0,0,1,1.56-.43,5.67,5.67,0,0,1,1.5.23Z" transform="translate(0)"/><path class="d" d="M153.87,18.81h-1.06V24H151V7.88h1.84v9.8l0.95-.32,3.57-4.88h2.14l-3.53,4.63-0.95.76,1.15,0.92L160,24h-2.28Z" transform="translate(0)"/></svg>