<?xml version="1.0" encoding="iso-8859-1"?>
<!-- Generator: Adobe Illustrator 16.0.0, SVG Export Plug-In . SVG Version: 6.00 Build 0)  -->
<!DOCTYPE svg PUBLIC "-//W3C//DTD SVG 1.1//EN" "http://www.w3.org/Graphics/SVG/1.1/DTD/svg11.dtd">
<svg version="1.1" id="Capa_1" xmlns="http://www.w3.org/2000/svg" xmlns:xlink="http://www.w3.org/1999/xlink" x="0px" y="0px"
	 width="420px" height="420px" viewBox="0 0 420 420" style="enable-background:new 0 0 420 420;" xml:space="preserve">
<g>
	<g>
		<path d="M245.799,167.07c-1.723-0.752-3.738-0.158-4.779,1.404l-52.037,78.473c-6.389,2.683-11.803,7.718-14.783,14.576
			c-6.16,14.134,0.307,30.578,14.441,36.734c14.135,6.161,30.587-0.306,36.744-14.439c2.99-6.844,3-14.248,0.616-20.758
			l22.021-91.517C248.462,169.701,247.525,167.814,245.799,167.07z"/>
		<path d="M257.427,105.66l-0.88-0.286c-9.998-3.251-18.943-5.384-27.346-6.507c-6.947-0.958-14.188-1.425-21.511-1.425
			c-2.479,0-5.03,0.063-7.563,0.16c-7.198,0.304-14.547,1.229-21.846,2.789c-5.326,1.125-9.992,2.345-14.26,3.693
			c-3.185,1.013-6.251,2.104-9.879,3.434c-0.871,0.323-1.576,0.979-1.967,1.815c-0.388,0.843-0.428,1.81-0.1,2.68l6.394,17.193
			c0.33,0.866,0.993,1.566,1.846,1.962c1.242,0.574,3.268-0.177,3.588-0.27c4.71-1.529,8.607-2.614,12.277-3.432
			c5.339-1.187,9.692-1.908,13.686-2.275c2.891-0.266,6.011-0.472,9.806-0.664c0.966-0.048,1.972-0.069,3.07-0.069
			c2.479,0,4.985,0.117,7.763,0.267c4.306,0.224,8.847,0.772,14.287,1.737c6.968,1.212,14.103,3.248,23.137,6.588
			c0.388,0.138,0.798,0.204,1.212,0.204c0.506,0,1.016-0.109,1.487-0.334c0.849-0.397,1.502-1.121,1.81-2.016l7.203-20.797
			c0.307-0.864,0.244-1.848-0.168-2.687C259.053,106.584,258.316,105.949,257.427,105.66z"/>
		<path d="M120.089,130.688c-0.591-0.73-1.451-1.186-2.385-1.275c-0.935-0.088-1.859,0.21-2.574,0.813
			c-4.541,3.841-10.453,9.012-15.914,15.028c-5.925,6.505-11.291,13.521-15.949,20.867c-5.727,9.035-10.245,18.175-13.423,27.147
			c-1.337,3.758-3.032,8.73-4.339,13.855c-0.913,3.582-1.671,7.202-2.309,10.299c-0.185,0.911,0,1.855,0.509,2.626
			c0.515,0.785,1.314,1.314,2.219,1.509l12.657,2.536c0.222,0.044,0.446,0.067,0.673,0.068c0.003,0,0.014,0,0.023,0
			c2.694,0,3.244-2.029,3.936-4.595c0.32-1.172,0.717-2.67,1.066-3.985c0.373-1.406,0.681-2.589,0.759-2.854
			c2.55-8.604,6.25-17.255,11-25.68c4.311-7.668,9.63-14.974,16.26-22.364c5.854-6.527,12.569-12.023,17.763-16.105
			c0.742-0.571,1.217-1.415,1.319-2.348c0.106-0.935-0.167-1.872-0.758-2.598L120.089,130.688z"/>
		<path d="M354.958,258.467l-28.525-2.967c-1.793-0.193-3.438,1.031-3.78,2.797l-1.553,7.939c-0.723,3.514-1.668,6.916-2.669,10.502
			c-0.314,1.123-0.626,2.261-0.934,3.383c-1.715,6.333-6.47,16.928-10.167,22.669c-0.535,0.829-0.692,1.829-0.446,2.791
			c0.251,0.944,0.888,1.733,1.756,2.196l27.487,14.379c0.499,0.264,1.056,0.396,1.617,0.396c0.362,0,0.725-0.05,1.075-0.158
			c0.891-0.297,1.629-0.926,2.047-1.771l2.351-4.716c4.077-8.155,7.42-17.166,10.236-27.521c2.581-9.478,3.823-18.904,4.615-26.054
			c0.099-0.922-0.167-1.858-0.75-2.581C356.736,259.036,355.882,258.579,354.958,258.467z"/>
		<path d="M319.235,212.859c0.769,3.078,1.518,6.434,2.307,10.259c0.187,0.925,0.736,1.714,1.527,2.225
			c0.562,0.369,1.22,0.554,1.892,0.554c0.251,0,0.509-0.022,0.77-0.086l26.653-5.988c0.914-0.217,1.706-0.785,2.2-1.579
			c0.494-0.796,0.642-1.759,0.418-2.679c-2.198-8.933-4.453-16.249-7.112-22.993c-3.242-8.231-7.439-16.453-12.825-25.137
			c-2.311-3.731-5.013-7.577-8.508-12.114c-3.155-4.088-6.406-7.861-9.661-11.2c-2.805-2.862-6.54-6.607-10.619-10.112
			c-2.826-2.424-5.749-4.729-8.267-6.706c-0.727-0.559-1.66-0.823-2.581-0.708c-0.922,0.115-1.76,0.576-2.326,1.319l-14.471,18.625
			c-1.145,1.483-0.925,3.602,0.505,4.812c0,0.004,2.672,2.264,3.935,3.36c3.049,2.646,6.124,5.698,9.399,9.32
			c3.716,4.108,6.507,7.561,8.785,10.867c5.833,8.459,10.252,16.543,13.529,24.708C316.852,204.781,318.267,208.99,319.235,212.859z
			"/>
		<path d="M92.775,304.75c-1.024-2.066-1.974-4.184-2.847-6.165c-1.674-3.824-3.246-8.155-4.947-13.604
			c-2.735-8.785-3.979-17.897-4.837-25.654c-0.101-0.924-0.574-1.783-1.311-2.354c-0.737-0.59-1.678-0.838-2.611-0.728
			l-11.269,1.474c-0.934,0.117-1.772,0.616-2.339,1.36c-0.562,0.748-0.803,1.694-0.663,2.618l0.223,1.502
			c1.67,11.115,3.822,20.072,6.76,28.177c1.513,4.156,3.364,9.035,5.651,13.765c1.535,3.16,3.25,6.447,5.558,10.657
			c0.442,0.819,1.2,1.459,2.09,1.718c0.32,0.09,0.64,0.133,0.967,0.133c0.59,0,1.175-0.179,1.692-0.479l8.112-4.491
			c1.628-0.901,2.263-2.944,1.429-4.614L92.775,304.75z"/>
		<path d="M358.576,111.041C318.904,70.525,266.139,48.213,210,48.213c-56.139,0-108.904,22.313-148.576,62.828
			C21.813,151.491,0,205.259,0,262.438c0,36.177,9.02,71.947,26.084,103.451c1.967,3.636,5.767,5.898,9.896,5.898h348.038
			c4.131,0,7.931-2.264,9.897-5.898C410.98,334.385,420,298.613,420,262.438C420,205.259,398.188,151.491,358.576,111.041z
			 M377.183,349.271H42.818C29.515,322.52,22.51,292.641,22.51,262.436c0-105.712,84.107-191.712,187.49-191.712
			s187.49,86,187.49,191.712C397.49,292.641,390.485,322.521,377.183,349.271z"/>
	</g>
</g>
<g>
</g>
<g>
</g>
<g>
</g>
<g>
</g>
<g>
</g>
<g>
</g>
<g>
</g>
<g>
</g>
<g>
</g>
<g>
</g>
<g>
</g>
<g>
</g>
<g>
</g>
<g>
</g>
<g>
</g>
</svg>
