<?xml version="1.0" encoding="utf-8"?>
<!-- Generator: Adobe Illustrator 19.2.0, SVG Export Plug-In . SVG Version: 6.00 Build 0)  -->
<svg version="1.1" id="Capa_1" xmlns="http://www.w3.org/2000/svg" xmlns:xlink="http://www.w3.org/1999/xlink" x="0px" y="0px"
	 viewBox="0 0 570 270" style="enable-background:new 0 0 570 270;" xml:space="preserve">
<style type="text/css">
	.st0{enable-background:new    ;}
	.st1{fill:#3D7A9C;enable-background:new    ;}
	.st2{opacity:0.88;fill:#3D7A9C;enable-background:new    ;}
	.st3{fill:#BAD9C1;}
	.st4{fill:#EB3A58;}
	.st5{fill:#3D7A9C;}
	.st6{fill:#A5D2E5;}
</style>
<g class="st0">
	<g>
		<path class="st1" d="M565,83.4c0-0.2-0.1-0.4-0.3-0.5l-0.7-0.9l0.2-0.7c0.1-0.2,0.1-0.5,0-0.7c-4.8-16.6-12.9-32.9-23.5-47.1
			c-0.2-0.2-0.4-0.4-0.6-0.5l-1.8-0.8c-0.5-0.2-1-0.1-1.4,0.2l-1.4,1c-1-1.2-2-2.5-2.5-3.3c-2.4-2.7-4.5-5.4-5.4-6.6
			c0.1-0.2,0.1-0.5,0-0.8l-0.7-2.1c-1.4-2.7-5.8-6.3-6.4-6.8c-0.2-0.1-1.9-1.3-3.1-1.8c-1.3-0.5-2.7-0.6-2.8-0.6
			c-0.3,0-0.6,0.1-0.8,0.2c-3.8-2.7-12.1-9.4-12.2-9.5c-0.1-0.1-0.3-0.2-0.5-0.2l-1.6-0.5c-0.5-0.2-1-0.1-1.3,0.3
			c0,0-0.4,0.3-1.7,0.6c-1.7,0.4-3.1,0.6-4.4,0.8l-0.3,0c-1.8,0.2-2.4,0.9-2.6,1.5l-2.4,3.8c-0.1,0.1-0.1,0.2-0.2,0.4
			c-0.1,0.2-0.1,0.6,0,1.3c0-0.1-0.1-0.1-0.1-0.2c-0.6-1.3-1.7-2.3-2.1-2.5c-2.6-1.5-7.2-0.9-9-0.6c-3.3,0.6-7.7,2-8.6,2.4
			c-0.7,0.3-4.5,1.5-6.4,2c-1.1,0.3-2.1,0.6-3,0.8c-0.6,0.2-1.2,0.4-1.7,0.5c-0.8,0.2-5.1,1.5-13,3.8c-3,0.9-5,1.3-5,1.3
			c-1,0.1-1.9,0.1-2.6,0.1c-2,0-2.8-0.3-2.8-0.3c0,0,0-0.3,0-0.3l0-3.4c0-0.2-0.2-2-1.8-2.9c-1.3-0.7-2.9-0.9-5.2-1
			c-2.4-0.1-5,0.1-6.3,0.4c-2.4,0.5-4.4,1.6-5.8,3.2c-2,2.3-1.8,4.2-1.7,4.3c0,0,0.1,2,0.3,3.5c0.1,0.5,0.2,1,0.4,1.4
			c-1.3,0.6-3.4,1.5-6.7,2.4c-6.1,1.8-10.2,2.2-10.2,2.2c-0.8,0.1-1.4,0.8-1.3,1.5c0.1,1.6,1.4,8.8,1.5,9.6c0.1,0.4,0.7,4,0.9,5
			c0.2,0.9,0.9,3,0.9,3c0,0.2,0.5,1.7,2.1,2.5c1.2,0.6,3.6,0.9,6.1-0.1c2.1-0.8,2.9-1.8,3.7-2.8l1.4-1.6c0,0,1.3-1.2,2.8-0.7
			c1.4,0.5,2.5,2,2.8,2.6c-0.8,0.3-1.8,0.6-2.5,0.8C412,47.5,398,52,398,52s-5.4,1.7-9.7,2.8c-4.3,1-6.7,1.4-7.6,1.4
			c-0.9,0.1-1,0-1.1,0c0,0,0-0.1,0.4-0.8c0-0.1,0-0.1,0.1-0.2c0,0,0,0,0,0c0.1-0.2,0.2-0.4,0.2-0.7c0-0.1,0-0.1,0-0.2
			c0-0.1,0-0.2,0-0.3c0,0,0-0.1,0-0.1c0-0.2,0-0.4,0-0.4s0-0.1-0.1-0.3c0-0.1-0.1-0.2-0.2-0.3c-0.3-0.6-0.8-1.5-1.6-2.3
			c-0.3-0.3-0.6-0.6-0.9-0.8c-1-0.5-1.9-0.5-1.9-0.5c0,0-2.4-0.3-6.7,1.5c-4.3,1.8-5.8,3.3-6.7,4.7c-0.9,1.4-0.1,3-0.1,3
			c1,1.5,3,3.2,3,3.2l0,0c-1.4,1.5-4.9,3-5.8,3.3c-0.1,0-0.2,0.1-0.2,0.1s-0.1,0-0.2,0.1c-1.1,0.4-5.7,1.9-9.9,2.5
			c-2.3,0.3-4.4,0.4-5.9,0.5c2.1-2,3-4.2,3-4.3c2-4.8,0.2-9.5-0.9-10.7c-1-1.1-3-2.5-3.1-2.6c-0.7-0.6-2.4-1.3-4.5-0.4
			c0.2-1.2,0.6-2.6,1.1-4c0.9-2.3,3-6.3,3-6.3c0.1-0.2,3.1-5.3,4.3-8.5c1.3-3.4,1.3-6,1.3-6.1c0-0.3-0.1-0.6-0.3-0.9
			c0,0-1.4-1.8-2.2-2.8c2.3,0.5,3.9-0.5,4.2-0.7c3.1-2.4,5.1-6.6,5.2-6.7l2.8-5.7c0.2-0.4,0.2-1-0.1-1.4l-2.4-3.8
			c-0.2-0.3-0.5-0.6-0.9-0.7c-0.3,0-0.8-0.2-3.5,0.8c-1.3,0.4-2.4,0.9-3.1,1.2l-0.8-1.1c-0.1-0.1-0.3-0.3-0.3-0.4
			c-0.6-0.7-1.9-0.8-3.9-0.3c-2.3,0.5-5.6,2.3-7.2,4.4c-0.9,1.1-1.3,2-1.5,2.5c-4.2,3.6-7.7,5.3-8.5,5.7c-1.4,0.2-2.3,0.9-2.5,1
			c-3.9,3.3-8.5,8.7-9.1,9.4c-0.2,0.2-0.4,0.5-0.5,0.8c-0.2,0.3-0.8,2.2-0.6,3c0,0.1,0,0.1,0,0.2c-1.8,2.4-2.9,3.7-3.5,4.3
			c-0.2,0-0.4,0-0.5,0c-0.7,0.2-2,1-2.5,1.3c-0.2,0.1-0.3,0.2-0.4,0.4c-1.1,1.6-3.6,5.7-4.4,7.1c-0.2,0.1-0.4,0.2-0.6,0.3
			c-0.2,0-0.4,0.1-0.6,0.2l-2,1.1c-0.2,0.1-0.4,0.3-0.5,0.5c-9.1,15-15.4,31.3-18.7,48.5c0,0.2,0,0.4,0,0.6l0.1,0.5l-0.5,1.1
			c0,0.1-0.1,0.2-0.1,0.3c-1.4,8.3-2.2,16.8-2.2,25.3c0,5.5,0.3,11.1,0.9,16.6c0,0.2,0.1,0.5,0.2,0.7l0.5,0.7l-0.3,0.8
			c-0.1,0.2-0.1,0.5-0.1,0.7c2.6,19.5,9,38.1,19,55.1c0.1,0.2,0.2,0.3,0.4,0.4l0.2,0.1l0.2,0.6c0,0.1,0.1,0.2,0.2,0.4
			c26.9,44.4,74,71,125.9,71c37.1,0,72.5-13.8,99.7-39c27.1-25,43.7-58.9,46.8-95.4c0-0.2,0-0.5-0.1-0.7l-0.4-0.9l0.5-0.8
			c0.1-0.2,0.2-0.4,0.2-0.6c0.2-3.2,0.3-6.5,0.3-9.6C570,108.6,568.3,95.8,565,83.4z M565.8,102c0.5,3.7,0.9,7.4,1.1,11.1
			c-0.2,0.5-0.3,1.7-0.3,1.7s-0.2,1.3-0.5,1.3c-0.1,0-0.2,0-0.3-0.1c-0.3-0.2-0.9-0.9-1.3-4c-0.6-4.1-0.4-8.4-0.4-8.4
			s-0.1-0.4,0.1-0.5c0.3-0.1,0.5,0.3,0.5,0.3s0.4,0.5,0.8,0.1C565.7,103.3,565.8,102.9,565.8,102z M562.3,84.4
			c0.6,2.3,1.1,4.6,1.6,7c-0.6-2.4-1.2-4.6-1.8-6.4c0-0.1-0.1-0.2-0.1-0.4c0,0,0,0,0-0.1c0,0,0,0,0,0c-0.1-0.3-0.2-0.5-0.2-0.8
			L562.3,84.4z M561.8,83.8L561.8,83.8c0,0.1,0.1,0.2,0.1,0.4C561.9,84,561.8,83.9,561.8,83.8L561.8,83.8z M555.6,65.2
			C555.6,65.2,555.6,65.1,555.6,65.2c2.2,5.1,4.1,10.3,5.7,15.5c-0.1,0-0.2,0-0.4,0c-0.1,0-0.1,0-0.1,0c0,0,0,0,0,0s-0.9-2.6-3-7.8
			c-1.8-4.6-2.3-6.5-2.4-6.9c0-0.1,0-0.1,0-0.1S555.3,65.3,555.6,65.2z M540.4,38.6c0.1-0.1,0.2-0.2,0.3-0.3
			c2.5,3.5,4.8,7.1,6.9,10.8c-0.3,0-0.5,0.4,0.1,1.8c0.3,0.9,0.4,1.2,0.3,1.2c-0.1,0.1-0.5-0.6-0.5-0.6c-2.6-3.4-8.1-12.3-8.1-12.3
			l0,0C539.7,39.1,540.1,38.9,540.4,38.6z M537.6,40.1c0.1,0,0.2-0.1,0.2-0.1c0.1,0,0.1-0.1,0.2-0.1c0.2-0.1,0.3-0.1,0.5-0.2
			c0,0,0,0,0.1,0l0,0c2.9,4.7,8.1,12.3,8.1,12.3s2.1,2.7,2.6,2.8c0.5,0-0.2-2.1-0.2-2.1s-0.2-0.9,0-1c2,3.5,3.8,7.1,5.4,10.8l0,0
			c0,0-0.4,0.2-0.4,0.9c0,1.4,1.4,4.7,1.4,4.7s3,7.6,4.9,12.9c-0.6,0.3-1,0.9-2.3,1.1c-1.7,0.3-3.6,0.9-5.5,3.8
			c-0.6,0.9-0.8,1.8-0.8,2.7c0,0,0,0,0,0c0,0.1,0,0.1,0,0.2c0,0.3,0,0.7,0.1,1c0,0.1,0,0.2,0,0.3c0,0.3,0.1,0.5,0.2,0.8
			c0,0.1,0,0.2,0.1,0.3c0,0,0,0,0,0c0.2,0.8,0.5,1.2,0.5,1.2s1,1.7,1.5,2.6c0.5,0.9,3.1,6.3,0.1,10.3c0,0-1.6,1.8-4.4,2.5
			c-2.5,0.5-1.8-2.3-2.1-3.9c0,0-0.4-6.5-3.5-10.2c-2.8-3.3-7.8,2.5-10.4,4.5c-2.3,1.8-9.2,8.9-19.1,14.1l-0.4-4.7
			c0,0-0.2-2.5-1.6-6.5c-2.8-8.1-5.5-11.8-5.5-11.8s-1.1-2.4-3.5-3.3c-0.6-0.2-1.3-0.4-2.1-0.4c-3.8,0-4.1,3.5-4.1,3.5
			s-0.9,2.8-2.3,3.6c-1.2,0.7-4.6,2.7-6.9,1.5c-0.3-0.2-0.6-0.4-0.9-0.7c-0.4-0.5-0.8-1-1.2-1.5c-0.4-0.6-0.8-1.2-1.2-1.8
			c-1.2-2.1-1.9-4.3-2.1-6.4c-0.3-3.3,1.1-4.6,1.1-4.6s0.3-0.8,4.6-0.8c4.9,0,5.8-1.5,5.8-1.5s0.9-0.9,0.9-2.8
			c-0.1-1.9-0.8-6-2.2-8.6c-0.2-0.3-0.5-0.8-0.8-1.2c-1.1-1.6-2.6-3.6-4.1-5.3l-2.6-0.5l2.6,0.5c1.7-0.6,4-1.5,6.5-2.7
			c5.1-2.3,7.6-4.2,9.9-5.6c0,0,5.2-3.2,8.2-3.1c0.1,0,0.7,0,0.8,0.9c0.1,0.9,0.3,2.3,0.6,3.1c0.3,0.8,2.1,5.2,7.8,5.8
			c0.7,0.1,1.4,0.1,2,0.1c0.3,0,0.6-0.1,0.9-0.2c0.2,0,0.5-0.1,0.8-0.1c0.4-0.1,0.8-0.3,1.2-0.4c0.1,0,0.2,0,0.2-0.1
			c0.4-0.2,0.7-0.4,1-0.6c0,0,0.1,0,0.1,0c1.3-0.9,1.9-1.8,1.9-1.8s2-3-1.4-6.6c0,0-2.7-2.9-2.8-3.2c0,0-0.2-0.3,0.1-0.5
			c0.1-0.1,0.2-0.1,0.4-0.2c0.5-0.1,3.9-1.1,7.1-2.2C534.9,41,536.4,40.5,537.6,40.1z M519.7,133.2c1.5,3.1,4.8,3.4,7.3,2.8
			c2.4-0.6,3.2-1.9,4.6-4.9c1.3-2.9,2.1-3.1,2.1-3.1s0.5-0.8,3-0.5c2.5,0.3,3,2,3,2s1.4,3.3,1.1,6.9c-0.3,3.5-1,5.1-1.9,6.3
			c-0.8,1.3-5,0.9-5,0.9s-7.2-0.8-7.9,7.9c-0.7,8.7,2.3,14.7,2.3,14.7c1.1,2.3,2.2,3.5,3,4.2c0.9,0.6,1.7,1.5,1.7,1.5
			s0.2,0.1,0.4,0.4h0c-5.2,4.2-6.7,5.5-10.8,8.4c0,0-4.7,3.5-9.8,6.3c-5.2,2.8-11.2,2.4-11.2,2.4s-1.6-0.2-0.8-1.4
			c0.8-1.2,1.8-4.1,2.2-5.5c0.4-1.5,1.2-5.2-1.8-6.4c-3-1.2-8.6,0.6-8.6,0.6s-12.9,3.4-18.2,9.2c-5.1,5.6-0.8,8.1-0.8,8.1
			s2,1.4,4,2.1c1.8,0.7,1.5,1.2,1,1.6c0,0-5.8,3.7-12.6,5.6c0,0-9.3,2.9-18.4,3.4c-8.9,0.6-12.7,0.8-12.8,0.8c-1-1.9-2-3.6-2-3.6
			s-1-1.6-1.6-3.9c-0.4-1.9-0.5-4.3,0.9-6.7c3-5.2,7.8-6.7,7.8-6.7s4.3-1,8.6,0c4,0.9,6.1-0.6,6.1-0.6s1.4-0.6,2.4-3
			c0.1-0.2,0.2-0.5,0.2-0.7c0.1-0.2,0.2-0.4,0.2-0.6c0.1-0.5,0.3-1.1,0.4-1.7c0.7-4.9,0-14.1-6.6-15.9c-6.6-1.8-10.1,1.6-10.1,1.6
			s-3.5,3.9-4.7,4.5c-1.2,0.6-2.9,1.6-2.9,1.6s-2.5,1.5-4.1,1.9c-1,0.2-4.6-4.4-5.4-8.3c0-0.3-0.1-0.5-0.1-0.8
			c-0.3-3.3-1-6-0.9-11.9c0-0.8,0-1.7,0.1-2.7v0c1.2-0.1,2.3-0.1,3.5-0.2c10.2-0.4,15.3-1.6,20.7-2.8c5.4-1.2,13-5.7,14.2-6.5
			c1-0.7,2.9-1.6,3.7-4.3c0.1-0.3,0.1-0.6,0.2-0.9c0-0.1,0-0.2,0.1-0.3v0c0.5-3.7-3.9-6.2-3.9-6.2s-3.5-1.8-4.2-2.6
			c-0.4-0.4-0.4-0.8-0.3-1.1c0.1-0.3,0.2-0.5,0.2-0.5s2-4.2,8.3-6.7c6.3-2.5,10.5-3.2,13.2-3.5c2.7-0.3,3.6,0.7,3.9,1.1
			c0.4,0.5,0.4,1.4,0.1,2.3c-0.3,0.9-1.3,3-1.9,4c-0.6,1-1.5,3.5-0.9,4.6c0.6,1.2,2.4,1.7,4.8,1.3c2.3-0.4,8.5-2.2,14-4.4
			c5.4-2.3,14.5-6.7,14.5-6.7s0,0,0.1,0l0,0c0,0,0,0,0,0l0.2-2c0,0,0,0,0,0l-0.2,2C514.7,122.6,518.2,130.1,519.7,133.2z
			 M534.8,182.4c-0.8,5.1-2,8-2.8,9.5c-0.1,0.2-0.3,0.5-0.4,0.8c-0.1,0.1-0.1,0.1-0.1,0.2c-0.1,0.2-0.3,0.4-0.4,0.6
			c-0.2,0.2-0.4,0.5-0.8,0.9c-0.2,0.2-0.3,0.4-0.5,0.5c-0.1,0.1-0.1,0.1-0.2,0.2c-0.2,0.2-0.4,0.4-0.6,0.6c-0.1,0-0.1,0.1-0.1,0.2
			c-1.1,0.9-2.5,1.8-3.9,2c-3.2,0.4-6.7,0.3-9.9,3.4c0,0-0.1,0.1-0.1,0.1c-0.1,0.1-0.2,0.2-0.3,0.3c-0.1,0.1-0.1,0.1-0.2,0.2
			c0,0,0,0,0,0.1c-0.3,0.3-0.6,0.8-0.9,1.2c-2.6,3.9-2,8.2-2,8.2s0.3,3.3,3.9,2.4c3.5-0.9,7.1-3.6,9.8-5.8c2.7-2.2,1,0.7,1,0.7
			c-2.4,4.7-6.9,9.3-6.9,9.3s-1.6,1.4-5.1,6.3c-0.9,1.3-1.7,2.4-2.3,3.4h0c0,0,0,0,0,0c-3.4,1.8-8.3,4.3-11.5,5.6c0,0,0.1,0,0.1,0
			c-0.2,0.1-0.3,0.1-0.5,0.2c-1.7,0.7-3,1.2-4,1.4c-1,0.3-1.6,0.3-1.8,0.2c0,0,0,0,0,0c0,0,0-0.1,0-0.1c0,0,0,0,0,0
			c0.4-0.5,1.3-1.3,1.3-1.3s1.1-1.1,1.1-2.3c0,0,0.1-0.4-0.4-0.7c-0.5-0.3-1.7-0.5-4.1,0.1c-1.2,0.3-2.4,0.6-3.5,1c0,0,0,0-0.1,0
			c-1.5,0.5-2.8,1-3.8,1.5c0,0,0,0,0,0c0,0,0.1,0,0.3-0.1c-1.4,0.6-2.3,1.1-2.3,1.1s-2.5,1.1-4.2,2.5l0.1-0.1
			c-0.1,0.1-0.1,0.1-0.2,0.2c-0.2,0.2-0.4,0.3-0.6,0.5c0,0-0.1,0.1-0.1,0.1c-0.2,0.2-0.4,0.5-0.5,0.7c0,0,0,0.1-0.1,0.1
			c-0.1,0.2-0.2,0.5-0.2,0.7v0c0,0.2,0.1,0.5,0.2,0.7c0,0,0.3,0.5,1.8,1c0.2,0,0.2,0.1,0.3,0.2c0,0,0,0,0,0.1c0,0,0,0.1,0,0.1
			c0,0-0.1,0.1-0.1,0.1c0,0-0.1,0-0.1,0.1c-0.1,0.1-0.2,0.1-0.3,0.2c-0.9,0.5-2.4,0.9-2.4,0.9c-3.9,1.3-6.9,1.9-10.7,2.6
			c-3.9,0.8-7.3,1.5-9.6,2c-0.2-0.9-0.6-1.9-1-2.7c0-0.1-0.1-0.2-0.2-0.3c-0.2-0.4-0.4-0.8-0.6-1.1c0-0.1-0.1-0.1-0.1-0.2
			c-0.2-0.4-0.4-0.8-0.6-1.1c-0.1-0.2-0.2-0.3-0.3-0.4c-0.1-0.2-0.2-0.3-0.3-0.4c-0.2-0.4-0.5-0.8-0.6-1c-0.9-1.4-2.4-2.3-6.8-1.5
			c-4.4,0.7-9.7,3-9.7,3s-5.4,2.8-9.4,2.3c-1-0.1-1.8-0.5-2.5-1c-1.9-1.4-2.4-4-2.4-4.9c0-1.3,0.9-2.4,3-3.2c2.1-0.8,7-1.9,14.2-2.3
			s9.9-5.1,9.9-5.1c0.8-1.2,2.2-3.7-0.2-5.8c-0.3-0.3-0.8-0.6-1.3-0.9c-2.5-1.4-3.5-1.7-4.4-2.1c-0.3-0.1-0.6-0.3-1-0.5
			c0,0-0.1,0-0.1-0.1c-0.1,0-0.1-0.1-0.2-0.1c-0.2-0.1-0.3-0.2-0.5-0.3c-0.5-0.4-1-0.8-1.5-1.2c-1.4-1.2-2.8-2.7-3.4-4.6
			c-0.1-0.2-0.2-0.6-0.3-0.8l-1.5-0.9l-0.9-0.6h0c0,0,0,0,0,0l0,0l0,0c0,0,0,0,0,0l2.4,1.6h0c2.1-0.2,4.8-0.4,7.3-0.5
			c4.8-0.2,12.4-1.3,16.8-2.3c4.4-1,11-3,16-5.6c4.9-2.5,5.2-4.3,5.2-4.3s0.4-0.5,0.1-1.3c-0.1-0.5-0.5-1-1.3-1.6
			c-2-1.5-3-1.1-4.8-2.9c-0.2-0.2-0.4-0.5-0.4-0.7c-0.6-1.8,2-3.9,2-3.9s1.8-2.5,11.5-6.2c9.7-3.8,11.4-2.5,11.9-2.1
			c0.1,0.1,0.2,0.3,0.3,0.4c0.2,0.6,0.2,1.5,0.1,2.2c-0.2,0.9-1.4,4.2-2.1,5.9c-0.3,0.9-0.5,1.9-0.3,2.8c0.2,0.8,0.8,1.6,2.1,1.8
			c2.7,0.5,6.3,0,9.8-1.3c8.3-3,10.7-6.6,24.4-16.5c0,0,0.1,0,0.1-0.1v0C535,175.9,535.4,178.5,534.8,182.4z M534.4,172.5
			L534.4,172.5L534.4,172.5C534.4,172.5,534.4,172.5,534.4,172.5z M511.7,227.7C511.7,227.7,511.7,227.7,511.7,227.7L511.7,227.7
			L511.7,227.7z M393.9,222.4c2.2,2.5,4.5,3.5,4.5,3.5s1.3,0.6,1.3,1c0,0.5,0,0.9-1.1,1.5c0,0-4,2.3-11.7,2.5
			c-7.8,0.1-11.2,0.1-13.5-2c-1.9-1.7,0.5-5.3,0.5-5.3s0.9-1.8,0-4.2c-0.9-2.4-6.3-2.4-6.3-2.4l-7.5-0.4c-8.8-0.2-20.5-1.2-25.7-1.9
			c0,0,0,0-0.1,0l-0.2-0.2c0,0-5.3-9.6-4.8-13.2c0,0,0.2-1.8,2.4-2.9c0.3-0.2,0.7-0.3,1.1-0.4c2.3-0.7,2,1.6,8.9,2.8
			c0,0,3.4,0.9,5.8-0.6c0.7-0.5,1.3-1.1,1.7-2.1c1.5-4.3-1.6-9.7-1.6-9.7s-4.1-7.6-9.3-7.9h0c0,0,0,0-0.1,0c-2.6-0.1-1.9,1.7-6,2.6
			c0,0-5.5,0.5-7.2-2.8c-2.1-4-2.9-8.5-2.9-11.5c0-0.1,0-0.2,0-0.3c0.1-1.9,0.1-2.5,0.2-3.1c0-0.2,0.1-0.4,0.2-0.7
			c0.1-0.3,0.2-0.7,0.3-1.2c0.1-0.5,0.3-1.2,0.4-2v0c2.3-0.3,6-0.7,10.3-1.1c7.2-0.8,12.1-1.6,16.6-0.9c4.5,0.7,5.9,4.2,5.9,4.2
			s0.1,0.2,0,0.5c-0.1,0.3-0.2,0.7-0.7,1c-1,0.7-2.1,1.6-2.7,2.6c0,0,0,0,0,0c0,0,0,0,0,0c-0.1,0.1-0.1,0.2-0.2,0.4
			c-0.2,0.5-0.4,1.2-0.4,2c0,1,0.3,2.1,1,3.5c1.6,2.8,6.1,4.5,9.9,4.1c3.8-0.4,9.5-1.9,12.9-2.8c2.8-0.7,5.3-1.9,6.5-3.7
			c0.4-0.6,0.7-1.2,0.8-2c0.4-2.9-4.4-6.6-4.4-6.6s-2.3-1.8-2.6-2.1c-0.1-0.1-0.1-0.2-0.1-0.3c0.1-0.2,0.3-0.3,0.3-0.3
			s2.7-0.7,3.9-1.2c1.2-0.5,4.4-1.8,9.6-3.5c5.2-1.6,16-3.6,16-3.6s6-1,13.4-1.6l0,0c0,0,0,0,0,0l0,0c0,0.7,0,1.4-0.1,2.2
			c-0.4,11.1,2.1,16.8,2.1,16.8c1.4,3,2.9,5.2,5,6.6c2.1,1.4,4.9,0.5,5.8,0c0.9-0.5,3.4-1.6,5.5-3c2.1-1.4,2.1-1.9,4.7-4.3
			c2.6-2.4,5.9-1.7,5.9-1.7s3.2,0.1,5,3.8c1.8,3.7,1.5,8.9,1,10.8c-0.5,1.9-1.3,3.1-3,2.8c-1.8-0.3-4.7-0.6-5.8-0.7
			c-1.1,0-4.1-0.1-6.8,0.6c-2.7,0.7-6.3,2.6-9.8,8.2c-2.7,4.3-1.4,8.6-0.7,10.3c0.5,1.3,1.8,3.2,3,5.4l0,0l2.2,0.7l0,0l-2.1-0.7
			c-3.7,0.4-9.9,1.3-16,2.8c-7.5,1.8-14.6,3.3-19.7,6.6C395.5,217.4,391.7,220,393.9,222.4z M334.3,214.8l0,0.4h0L334.3,214.8z
			 M412.8,99.2c-0.6-4-0.7-4.9-4.2-17c4.6-0.6,8.4-1.2,12.6-2.1c2.9-0.6,6-1.2,9.7-2.1c0,0,8.7-1.5,10.5-4.7
			c1.1-1.8,2.9-4.4-0.1-6.9c0,0,0,0,0,0c0,0-0.1-0.1-0.4-0.3c-0.3-0.2-0.9-0.4-1.9-0.6c-0.8-0.2-1.5-0.3-2.2-0.5
			c-0.9-0.3-1.8-0.7-2.8-1.3c-1.6-1.2-1.6-2.5-1.6-2.5s-0.1-1.3,2.5-2.7c0,0,1.4-1,4.1-2.1c0.9-0.4,2-0.8,3.2-1.2
			c4.8-1.5,10.4-0.8,10.4-0.8s2.3,0.2,2,1.8c-0.4,1.6-1.7,4.2-1.8,5.6c0,0.8,0,1.7,0.6,2.5c0.2,0.3,0.5,0.5,0.8,0.8
			c0.3,0.2,0.8,0.5,1.3,0.7c1.7,0.7,3.8,0.8,5.1,0.8c0.8,0,1.3-0.1,1.3-0.1s4-0.2,10.4-2.3c4-1.3,8.1-2.7,10.6-3.6
			c1.5-0.5,2.4-0.8,2.5-0.9c0,0,0,0,0.1,0v0c5.7,5.6,6.7,12.3,6.7,12.3s0.8,2.7-0.8,2.9c-1.4,0.2-4.6,0.2-4.6,0.2s-1.2,0.1-3.2,0.5
			c-2,0.4-3.2,2.5-3.5,4c-0.3,1.5-1.2,5.5,2.2,11.8c3.3,6.3,7.6,6,7.6,6c3.7-0.3,4.8-1,7-2.4c2.1-1.4,3-4.6,3.2-5.2
			c0.1-0.6,0.4-1.2,0.9-1.2c0.5,0,0.3,0,1.5-0.2c1.1-0.2,2,0.6,2.9,2.5c0.6,1.2,3.8,6.5,4.8,9.7c0.9,3.1,1.8,6.3,1.8,9.1
			c0,1.1,0.2,2.4,0.4,3.5l0.9,1.3l-0.9-1.3c-4.7,2.4-15.5,7.6-22.5,10c0,0-5.4,2.2-7.5,2.2c0,0-0.5,0-0.1-0.5
			c0.4-0.5,0.8-0.9,1.4-2.1c0.7-1.2,1.8-3.9,1.8-6.6c0-2.8-3.2-5.5-7.6-5c-4.5,0.5-8.7,1.7-13.9,3.7c-5.1,2-9.5,6.2-10.1,9.6
			c-0.6,3.5,3.2,5.5,3.2,5.5s4.2,2.2,4.8,3.3c0.5,1.2,0.1,2.2,0.1,2.2s-0.4,1.2-2.2,2.2c-1.8,1.1-6.9,3.7-6.9,3.7s-6.3,3.5-15.9,4.3
			c0,0-8.7,0.7-13.8,1c-0.1,0-0.1,0-0.2,0c0.2-6.4-0.6-11.4-1.9-15.2c-0.4-1.2-0.9-2.4-1.5-3.3c-2.3-4-6-6.2-7.9-7.1
			c-1.9-0.9-6.1-1.3-9.1-0.2c-2.9,1.1-3.5,1.9-4.6,3.8c-1.1,1.9-2.4,1.7-2.4,1.7s-3.9,0.1-5.3-5.8c0-0.1-0.1-0.2-0.1-0.3
			c-0.2-0.9-0.3-1.7-0.4-2.5c0-0.2-0.1-0.4-0.1-0.5c-0.1-0.5-0.1-0.9-0.1-1.4c0-0.4-0.1-0.8-0.1-1.1c0-4.5,1.6-6.1,1.6-6.1
			s0.9-1.4,3.9-1.8c3-0.4,4.9,0.3,7.2,0.9c2.3,0.6,4,0.3,6.9-1.1c1.7-0.8,2.8-1.9,3.3-3.5C412.9,102.3,413,100.9,412.8,99.2z
			 M461,14.1c2-0.5,5.9-1.8,6.8-2.1c0.8-0.3,5.1-1.7,8.1-2.2c3.1-0.5,5.9-0.4,6.9,0.1c0.2,0.1,0.8,0.8,1.1,1.4
			c0.4,0.8,1.4,2.9,3.3,3.8c1.6,0.8,2.7,1.2,6.1,0.9c4.9-1.2,5.4-4,4.9-4.9c-0.6-1.2-2.6-2.5-2.6-2.5s-2.6-1.6-3.1-2.4
			c-0.1-0.1-0.1-0.1-0.1-0.2c1.4-0.2,2.9-0.4,4.8-0.9c0.9-0.2,1.6-0.5,2.1-0.7l0.8,0.2c1.5,1.2,10.2,8.2,13.2,10.1
			c0.6,0.4,1.4,0.3,1.9-0.3l0.1-0.1c0.4,0.3,0.8,0.6,0.9,0.8c0,0,1.9,0,2.8,0.9c1.2,1,4.6,4,5.5,5.6l0.4,1.3c-0.2,0.5-0.2,1,0.1,1.5
			c0.1,0.2,2.7,3.8,6,7.5c0.3,0.5,3.1,4.2,4.6,5.8c-0.8,0.3-1.9,0.7-3.5,1.1c-3.2,0.9-6.2,2.3-6.2,2.3s-2.5,0.8-1.6,2.9
			c0.1,0.2,0.2,0.3,0.3,0.5c0,0.2,0.1,0.3,0.2,0.5c0,0,0,0,0.1,0.1c0.9,1.4,1.8,2,1.8,2s0.2,0.1,0.4,0.4c0.1,0.1,0.2,0.3,0.4,0.5
			c0.1,0.1,0.1,0.1,0.2,0.2c0.2,0.3,0.4,0.6,0.6,0.9c0.3,0.5,0.5,1,0.5,1.5c0.1,1.5-0.6,2.2-2.2,3.1c-1.6,0.9-3.1,1.1-3.1,1.1
			s-3.8,0.7-5.7-1.1c-1.9-1.8-2.2-4.8-2.2-4.8s-0.1-2.5-3.3-3.6c-3.1-1.1-7,1.2-7,1.2s-3,1.6-6.3,3.7s-9.4,4.7-13.3,6l-0.4,2v0h0v0
			h0l0.2-1l0.2-1c0,0,0,0,0,0c-0.3-0.3-0.7-0.8-1.3-1.4c-1.5-1.6-3.7-4.2-5.7-6.7c-2-2.4-3.8-4.6-4.4-5.5c-1.6-2.3-1.9-2.8-2.1-3.6
			c-0.1-0.2-0.1-0.4,0-0.7c0.1-0.9,0.7-2,1.2-2.6c0.7-0.8,1.5-1,3.2-0.6c1.7,0.4,2.8,1.1,5.4,0.2c2.6-0.8,2.8-2.8,3-4.9
			c0.2-1.5-1.2-4.3-2.7-6.5c-0.5-0.7-1-1.4-1.5-1.9c-2-2.1-4.7-2.4-6.6-2.3c-1.9,0.1-3,1.5-4.1,2.1c-1.1,0.6-3.2,1.2-4.1,0.8
			c-0.5-0.2-1.1-0.4-1.7-0.9c-0.7-0.5-1.4-1.3-2.2-2.7c-1-1.8-1.9-3.5-2.5-4.6C459.8,14.4,460.4,14.3,461,14.1z M405.2,55.2
			c0.5-0.2,1.2-0.5,2.3-0.7l2.2-0.1c0.5,0,0.9,0.1,1.5,0.1l0.5,0.1c1,0.1,2.3,0.2,4-0.5c0,0,0,0,0,0c0,0,0.1,0,0.1-0.1
			c0.3-0.1,0.6-0.2,0.9-0.4c1.2-0.7,4.5-2.5,4.3-6.2c-0.2-3.7-3.2-8.1-5.6-9.6c-0.6-0.4-1.3-0.6-1.9-0.8c-2-0.4-4.1,0.2-5.4,1.1
			c-1.7,1.3-2.4,2.9-3.5,3.5c-1,0.5-2.5,1.7-4.1,1.4c0,0,0,0,0,0c-1.6-0.4-1.7-3.9-2.3-7.9c-0.3-1.6-0.5-3-0.7-4
			c-0.1-0.5-0.2-0.8-0.2-1.2c1.9-0.3,5-0.9,8.9-2c6.6-1.9,8.9-3.5,9.1-3.7c0.3-0.2,0.4-0.6,0.5-0.9c0.7-0.4,1.3-0.9,1.8-1.3
			c0,0,1.8-0.8,0.1-2.5c0,0,0,0,0,0c-0.9-0.8-1.5-1.4-1.9-1.7c-0.4-0.3-0.6-0.5-0.6-0.5s-0.3-0.2-0.4-0.5c0-0.1-0.1-0.2-0.1-0.4
			c0.2-0.3,0.4-0.6,0.7-0.9c1-1.1,2.4-1.9,4.3-2.3c1-0.2,3.3-0.5,5.6-0.4c1.8,0.1,2.8,0.2,3.5,0.5c-0.1,1-0.2,2.5-0.2,2.9
			c0,0.4,0.1,1.4,1.1,2.4c0.2,0.6,0.6,1.1,1.2,1.4c0.4,0.3,2.2,1.1,7.3,0.6c0.1,0,2.2-0.4,5.4-1.4c7.8-2.3,12.2-3.6,13-3.8
			c0.1,0,0.2,0,0.2-0.1c0.4,0.8,1.1,2,2.2,3.9c2.6,4.4,7.1,6.1,9,6c1.7-0.2,4.6-1,5.8-2.2c1.1-1.3,2.3-1.1,2.3-1.1
			c2.5-0.2,3.1,1.9,5.1,4.8c2,2.9,0.8,5.2,0.8,5.2c-1.3,1.8-2.9,1.4-4.2,1.1c-1-0.2-1.1-0.3-2.3-0.6c-3.7-0.5-5,2.3-5,2.3
			c-2.7,4.1,0.5,7.1,0.5,7.1s7.1,9.5,12.4,15.3c-4.1,1.4-9.3,3.2-9.3,3.2s-7.2,2.7-11.9,3.3c-4.7,0.6-5.8,0-6.4-0.7
			c-0.6-0.6,0.1-2.9,0.1-2.9s1.9-3.9,1-6c-0.9-2-7-2.6-7.1-2.6c-0.1,0-6.6-0.8-12.7,2.7c-5.4,3-6.1,4.7-6.1,4.7s-1.7,2.7,0.3,5.3
			c2.3,3,5.4,3.3,5.4,3.3s2.9,0.2,3.6,1.1c0.7,0.8,0.2,1.8,0.2,1.8s-1,2.6-6.4,3.8c0,0-9.1,2.7-26,5.1c-3.4-12.2-3.6-19.9-3.6-19.9
			C403.8,56.9,404.1,55.9,405.2,55.2z M349.1,92.3c0,0,1.4,0.2,1.2,0.7c-0.2,0.4-1.2,1.2-1.2,1.2s-0.4,0.2-1.9,1.9
			c-1.5,1.7-1.9,3.3-2,4.7c0,0.2,0,0.4,0.1,0.7c0.3,1.8,2.1,5.2,6.8,6.2c5.4,1.1,11.7-1,11.7-1s4.1-0.9,7.9-4.8
			c1.8-1.8,2-3.7,1.7-5.3c-0.4-2.1-1.6-3.6-1.6-3.6s-0.6-0.9-1.9-1.3c0,0-0.3-0.1-0.3-0.3c0-0.1,0-0.1,0.1-0.2
			c0.2-0.2,0.5-0.9,1.5-1.5c0.5-0.3,1.4-0.7,2.5-1.1c2.9-0.7,11.4-3.4,31.6-6.1v0c0,0,1.5,5.9,2.6,9.6c1.1,3.8,1.6,7.5,1.8,8.3
			c0.2,0.8,0.1,2.2-0.9,3c-1,0.8-3.5,1.5-4.1,1.6c-0.5,0.1-1.5-0.1-2.8-0.6s-2.6-0.5-2.6-0.5s-3.2-0.5-6.5,0.5
			c-3.4,1-5.9,4.5-6.1,8.8c-0.2,4.3-0.2,6.5,1.5,10.3c1.7,3.8,4.7,6,7,6c2.3,0,4.2-1.2,5.5-3c1.3-1.9,1.7-2.1,1.7-2.1
			c1.6-0.9,5.6-1.2,7.6-0.5c2,0.7,5.7,3.1,7.8,7.7c1.7,3.7,2.2,7.9,2.1,15.3l1.7,1.3l0,0l-1.7-1.3c-4.7,0.4-10.1,1-10.1,1
			s-12.3,1.7-23.5,5.2c-9.5,2.9-11.3,4.5-11.3,4.5s-2,1.7-0.3,4.1c0,0,1,1.6,2.9,3.1c2,1.5,3.5,3,3.3,3.8c-0.2,0.8-0.8,1.1-0.8,1.1
			s-2.8,2.4-14,4.3c0,0-7.2,1.4-9.5-0.8c-2.2-2.2-1.2-3.7-1.2-3.7s0.2-0.5,1.8-1.5c0,0,2.7-1.7,1.8-4.9c-0.9-3.2-6.1-7.3-11.7-7.2
			c0,0-6.6,0-23.4,2.2c0,0,0,0-0.1,0c0-0.7,0-1.5-0.1-2.4c-0.3-4.7-0.6-12.1-1.2-16.3c-0.6-4.3-1.8-10.9-5.7-11c0,0-1.9-0.2-4.7,2.5
			c-2.5,2.5-4.8-2-4.9-4.8c-0.2-3.2,0.4-6.4,1.2-8c0.2-0.4,0.5-0.7,0.8-0.9c1-0.7,2.3-0.7,2.6-0.7c0.4,0,1.6,0.5,3,1.4
			c1,0.7,2.4,0.8,3.5,0.4c0.4-0.2,0.7-0.4,1-0.6c1.1-1.1,2.7-2.5,3.3-7.4c0.6-5,0.6-10.1,0-16.3l0,0c1.1-0.2,2.5-0.5,4.2-0.7
			c1.8-0.3,3.9-0.6,6-0.8C339.1,92,346.2,91.9,349.1,92.3z M301.3,46.1c0.2-0.2,0.6-0.4,0.8-0.5c0.3-0.1,0.6-0.3,0.8-0.6
			c0,0,3.1-5.2,4.4-7.1c0.4-0.3,0.9-0.5,1.1-0.7c0.1,0,0.2,0.1,0.4,0.1c0.4,0.1,0.8-0.1,1.1-0.3c0.2-0.1,1.6-1.5,5-6.1
			c0.3-0.3,0.4-0.7,0.3-1.1c0-0.3-0.1-0.5-0.3-0.7c0.1-0.4,0.2-0.9,0.3-1.1c0,0,0,0,0.1-0.1c0-0.1,4.9-5.8,8.8-9
			c0,0,0.5-0.3,1.2-0.4c0.1,0,0.3-0.1,0.4-0.1c0.2-0.1,4.5-1.9,9.7-6.5c0.2-0.2,0.4-0.5,0.5-0.8c0,0,0.2-0.7,1.1-1.9
			c0.8-1,2.5-2.1,4.1-2.8c-0.5,0.5-1.2,1.1-2.1,2c-0.9,0.9-1.2,1.5-1.1,1.8c0.1,0.3,0.5,0.3,1.1,0.1c0.3-0.1,0.7-0.2,1.1-0.4
			c0,0,0,0,0,0v0c1.1-0.5,2.7-1.2,5-2.4l0.1,0.1c0.4,0.6,1.2,0.8,1.9,0.4c0,0,1-0.5,2.5-1.1c-0.9,1.9-2.4,4.9-4.1,7
			c0,0-1.1,1.6-1.9,1.2c-0.8-0.4-1.8-0.4-2.6-0.2c-0.8,0.2-3.3,1-5.6,4c-2.3,3-2.5,5.3-1.3,6c1.2,0.7,3-0.2,4.1-1.2
			c0.8-0.7,1.4-1.1,1.8-1.3c0.1,0.3,0.3,0.5,0.6,0.6c0,0.2,0,0.4,0,0.5c-0.1,0.3-0.4,3.9-4.6,11.2c-1.1,1.8-2.4,4.5-3.1,5.9l0,0
			c-6.8,1.3-11.9,2.8-13.6,3.5c-1.7,0.7-1.8,0.2-1.8,0.2c-0.2-0.3-0.1-0.8,0.2-1.4c0.2-0.3,0.4-0.7,0.6-0.9c0.3-0.4,0.5-0.6,0.5-0.6
			s1.9-2.6,2.6-4.9c0.7-2.3-2.5-2-2.5-2c-2.2,0.3-3.7,1.4-5.5,3.5c-1.4,1.7-2.2,4-2.6,5.2c-0.2,0.8-0.5,1.5-0.5,1.5
			s-0.3,0.5-1.3,0.9c-1.2,0.5-3.5,1.1-3.5,1.1s-1.5,0.1-2.7-0.4c-0.4-0.2-1.1-0.1-1.7,0C301.2,46.2,301.3,46.2,301.3,46.1z
			 M299.2,47.8L299.2,47.8L299.2,47.8C299.2,47.8,299.2,47.8,299.2,47.8z M289.4,66.8C289.4,66.8,289.4,66.8,289.4,66.8
			c-0.2,0.7-0.3,1.1-0.3,1.1c0,0.3,0,0.5,0,0.6c0,0.2,0.1,0.3,0.3,0.3c0.1,0,0.4-0.4,0.4-0.2c0,0.1,0,0.5-0.1,1.2
			c-0.2,1.3-1.5,4.9-2,6.3c-0.5,1.5-1,2.4-1.4,2.4c-0.1,0-0.2-0.1-0.3-0.2c-0.1-0.2-0.1-0.5-0.1-0.5s0-0.2-0.1-0.4
			c-0.1-0.1-0.2-0.2-0.4,0C286.7,73.7,288,70.2,289.4,66.8z M284.6,80.3L284.6,80.3c0,0,0.1-0.4,0.2-0.6c0.1-0.1,0.2-0.1,0.2,0.3
			c0,0.9,0.6,1,0.6,1c0.4,0,0.8-0.5,1.2-1.2c0,0,0,0,0-0.1c0.2-0.3,0.3-0.6,0.5-1c0-0.1,0.1-0.2,0.1-0.3c0.1-0.3,0.3-0.6,0.4-1
			c0.1-0.1,0.1-0.3,0.2-0.5c0.1-0.3,0.2-0.7,0.4-1c0.1-0.2,0.1-0.3,0.2-0.5c0.1-0.3,0.2-0.6,0.3-1c0.1-0.2,0.1-0.4,0.2-0.6
			c0.1-0.2,0.1-0.3,0.2-0.5c0.1-0.4,0.2-0.8,0.3-1.1c0.1-0.3,0.2-0.6,0.2-0.8c0.1-0.3,0.1-0.6,0.2-0.8s0.1-0.5,0.2-0.8
			c0.1-0.4,0.2-0.8,0.3-1.2c0-0.2,0.1-0.4,0.1-0.5c0.1-0.2,0.1-0.4,0.1-0.6c0-0.1,0-0.2,0-0.2c0.1-0.6,0.2-1,0.2-1.1
			c0-0.3-0.2-0.5-0.4-0.4c-0.3,0.2-0.4,0-0.4,0c0-0.1,0-0.2,0-0.3c0,0,0,0,0-0.1c0.2-0.9,1-2.9,1-2.9c0.4-1.1,0.9-2.1,1.3-3.2
			c0-0.1,0.1-0.2,0.1-0.3c0.2-0.5,0.4-1,0.7-1.4c0,0,0-0.1,0-0.1c1.8-3.7,3.6-6.7,4.9-8.7c0.2,0,0.2,0,0.7-0.2c0,0,1.1-0.2,3.2,0.3
			c2.6,0.7,5.9-1.4,5.9-1.4s0.1,0,0.1-0.1c0,0,0,0,0,0c0.1,0,0.2-0.1,0.3-0.2c0,0,0.1,0,0.1-0.1c0.1-0.1,0.2-0.2,0.4-0.3
			c0,0,0.1-0.1,0.2-0.1c0.1-0.1,0.3-0.2,0.4-0.4c0,0,0.1-0.1,0.1-0.1c0.7-0.7,1.5-1.5,2-2.6l1-2.9c0,0,0.8-2.8,3.2-3.7
			c0,0,0.9-0.5,2.4-0.5c0.9,0,1.1,0.4,1.2,0.7c0,0.2,0,0.3,0,0.3s-0.2,0.7-1.7,2.6c-1.5,1.9-1.9,3.4-1.9,3.4s-0.5,1.2-0.2,2
			c0.1,0.3,0.3,0.5,0.7,0.7c0,0,0.7,0.4,2.7-0.3c2-0.7,8.6-2.4,12.7-3l0,0l0,0c-0.8,2.2-1.7,5.6-1.3,7.5c0.6,2.9,3.3,2.9,3.3,2.9
			s0.6,0,1.5-0.2c0,0,0.1,0.1,0.2,0.1c0.5,0.2,1.4,0.2,3.1-0.7c0.1-0.1,0.2-0.1,0.4-0.1c1,0.9,1.2,3.6,1.2,4.2c0,0.8,0,4.9-2.9,7
			c0,0-1.2,0.9-2.8,0.9c-1.7,0-2.7-0.5-2.7-0.5s-2.8-0.8-4.5,0.2c-1.7,1-3.8,3.1-5.4,6.2c-1.6,3.1-3,8.5-2.9,12.6
			c0.1,3.2,0.5,6.2,0.8,8.2l1.9,1.2c0,0,0,0,0,0l-1.9-1.2c0,0-6.5,1.7-13.9,1.7c-5.2,0-5-2.7-4.4-4.5c0.1-0.2,0.2-0.5,0.3-0.7
			c0,0,0.1-0.1,0.1-0.2c0.1-0.2,0.2-0.3,0.2-0.4c0.1-0.1,0.1-0.2,0.1-0.2s1.8-3.2,2.2-5c0,0,0.6-5-4.1-4.7c-4.7,0.3-5.6,4.4-5.6,4.4
			s-0.3,2.3-0.3,4c0.1,1.7,0,5.3-2.1,7.3c-2.1,2-4.4,1.4-4.4,1.4s-3.8-1.7-4.6-2.1c-0.6-0.3-1.1-0.3-1.7-0.3
			C282.5,88.2,283.5,84.3,284.6,80.3z M280.2,138.6l-0.8-1.1c-0.6-5.3-0.9-10.6-0.9-15.9c0-8.3,0.7-16.5,2.1-24.6l0.6-1.5
			c0.1-0.1,0.1-0.3,0.1-0.4c0.6,0.1,1.2,0.4,1.2,0.4s3.2,1.8,4.7,2c1.5,0.3,2.5-0.2,3.5-0.8c0.2-0.1,0.4-0.3,0.6-0.5
			c0.2-0.1,0.3-0.3,0.5-0.4c0.1-0.1,0.3-0.3,0.4-0.4c0.2-0.2,0.4-0.4,0.6-0.7c0,0,0,0,0,0c0.6-0.8,1.1-1.6,1.5-2.4c0,0,0,0.1,0,0.1
			c0.2-0.3,0.3-0.6,0.4-0.9c0.1-0.2,0.1-0.5,0.2-0.8c0-0.1,0-0.2,0.1-0.3c0-0.1,0.1-0.3,0.1-0.4c0.1-0.8,0.2-1.8,0.3-2.7
			c0.1-1.4,0.2-2.6,0.2-2.6l0,0c0-0.1,0-1.2,0-1.5c0,0,0-0.1,0-0.1c-0.1-0.4-0.1-1.5,0.6-2.1c0.8-0.7,1.3-1,3.3-1
			c1.9,0,2.5,1.1,2.5,1.1s0.7,0.9,0.7,1.5c0,0.6-0.2,1-0.2,1s-1,1.8-1.4,2.7c-0.4,0.9-1.8,3.8-1.4,6.2v0c0.4,2.4,4.2,3.6,4.2,3.6
			s3,0.7,7.4,0.1l8.9-1.4l1.5-1.8l0,0l-1.5,1.8c0.2,3.2,0.5,9.6,0.4,11.7c0,2.6-0.4,8.1-3.2,9.4c0,0-0.9,0.5-2.5-0.7
			c-1.5-1.2-3.2-1.2-3.9-1.2c-0.7,0-3.7,0.5-4.8,3.8c-1.2,3.3-1.1,7.7-0.8,10.3c0.2,2.6,2.5,7,5.3,7c0,0,1.4,0.1,3-1.6
			c1.6-1.7,2.6-1.8,3.3-1.8c0.7,0,2.1,0.8,3.1,8.1c0.9,7,1.2,12.7,1.2,19.1l1.7,1.1c0,0,0,0,0,0h0l-1.7-1.1c-0.9,0.1-2,0.2-3.2,0.3
			c-2.9,0.2-7.1-0.2-12.3-1.7c-5-1.5-8.2-4.2-8.9-5.9c0-0.1-0.1-0.1-0.1-0.2c-0.1-0.3-0.1-0.6-0.1-0.9c0-0.1,0-0.2,0-0.2
			c0-0.9,0.2-1.7,0.2-1.7s1-3.8,0.4-6.9c-0.1-0.3-0.1-0.7-0.2-1c0-0.1,0-0.2,0-0.3c0-0.1,0-0.2-0.1-0.2c0-0.1-0.1-0.1-0.1-0.2
			c-0.7-2.3-1.8-4.2-4.2-5.6c-3-1.8-4.7-1.5-4.7-1.5s-2.7-0.4-2.6,4.1c0.1,4.5,0.7,6.5,0.7,6.5s0.5,1.6-0.3,1.8
			c-0.8,0.2-2.1-1-2.1-1s-0.6-0.5-1.4-1.3c-0.1-0.1-0.2-0.2-0.3-0.3c-0.5-0.5-1.1-1.2-1.7-1.8l0.3-0.7
			C280.6,139.5,280.5,139,280.2,138.6z M285.5,165.4C285.5,165.4,285.5,165.4,285.5,165.4c0.2-0.1,1.7,2.5,2.5,4.9
			c0.9,2.8,1.6,5.2,1.6,5.2s0.5,1.6,0.5,2.2C288.3,173.7,286.8,169.6,285.5,165.4z M299.5,196.4l-0.2-0.9c-0.1-0.3-0.3-0.6-0.5-0.8
			l-0.3-0.3c-2.7-4.5-5-9.2-7.2-14c0,0,0-0.1,0-0.1c0-0.1,0.1-0.2,0.1-0.3c0-0.1,0-0.2,0-0.3c0-0.2,0-0.4-0.1-0.6c0-0.1,0-0.1,0-0.2
			c0,0,0,0,0,0c-0.2-1.4-0.8-3.7-2.2-7.4c-1.5-4-2.5-6.2-3.1-7.4c0,0,0,0,0,0c-0.1-0.1-0.1-0.2-0.2-0.3c0,0,0,0,0,0
			c-0.5-0.9-0.7-1.1-0.8-1.2c-0.1-0.1-0.3-0.3-0.4-0.2c-1.9-6.3-3.3-12.8-4.3-19.3c0.2,0.3,0.5,0.5,0.8,0.9h0
			c0.5,0.6,1.1,1.2,1.8,1.9h0c0,0,0,0,0,0c3.1,3.2,4.1,1.2,4.1,1.2s0-0.1,0.1-0.4c0,0,0-0.1,0-0.1c0-0.1,0.1-0.2,0.1-0.4
			c0-0.1,0-0.1,0-0.2c0-0.2,0-0.3,0-0.5c0,0,0,0,0-0.1c0,0,0,0,0,0c0-0.4,0-0.8,0-1.4v0c0-0.3-0.1-0.5-0.1-0.8c0-0.2,0-0.3,0-0.5
			c-0.1-0.3-0.1-0.6-0.2-1c0-0.1,0-0.2-0.1-0.4c0,0,0,0,0,0c-0.5-2.3-0.7-3.9-0.3-4.9c0.1-0.3,0.2-0.4,0.4-0.6
			c0.1,0,0.1-0.1,0.2-0.1c0.1-0.1,0.3-0.1,0.5-0.1c0.1,0,0.1,0,0.2,0c1.6,0,6.5,1,7.9,5c0,0,0.6,1.9,0.1,4.2
			c-0.6,2.4-0.5,4.5-0.1,6.6c0.4,2.1,2.2,4,4.2,5.6c2,1.6,7.8,4.4,13.5,4.7c5.7,0.4,7.4,0.1,7.4,0.1l2.1-2.2l0,0h0c0,0,0,0,0,0v0
			l-2.1,2.2c-0.1,0.6-0.3,1.2-0.4,1.8c-0.5,2-0.5,3.9-0.1,7.3c0.5,3.5,2.3,10.6,5,12.5c3.6,2.5,5.9,2.4,8.3,2.3c2.4-0.2,4.1-2,4.1-2
			s0.9-1,2-0.7c1,0.3,3.8,1.9,5.9,6c2,4.1,2.5,8.6-0.9,9.4c-3.4,0.8-9.2-2.4-9.2-2.4s-3.3-1.9-6,0.2c-2.7,2-2.8,5.2-1.4,9
			c0.8,2.1,2.2,5.5,4.3,9.1l0,0c-3.3-0.6-9.3-1.9-11.6-3.1c-0.9-0.5-1.7-0.7-2.2-1c-0.3-0.1-0.5-0.3-0.6-0.5
			c-0.2-0.4-0.3-0.8-0.2-1.6c0.3-2.2-2.2-5.2-2.2-5.2s-3.4-3.7-6.4-6c-3.1-2.3-4.4-1.6-4.4-1.6s-1.4,0.7-0.1,3.7c1.2,3,2.5,4,2.5,4
			s0.6,0.6,0.2,0.8c-0.3,0.2-1.4-0.6-2.2-1.4c-0.4-0.3-2-1.8-3.6-3.4C300.7,198.1,300.1,197.3,299.5,196.4z M366.4,254.4
			c-0.6-0.4-1.3-0.8-2-1.2c-1.5-0.9-5.9-2.6-5.9-2.6s-0.5-0.2-1.1-0.4c-5.3-2.7-10.4-5.7-15.4-9.1c0.9,0.3,1.8,0.4,2.4,0
			c-0.2-1.6-2-2.9-3.1-3.7c-0.4-0.3-0.7-0.8-1-1.1c-1.3-1.2-2.9-2.4-4.4-3.4c-1.2-0.9-2.9-1.4-4-2.4c0-0.2,0.4-0.9,0.1-1.5
			c-0.9-2.6-4.5-5.5-6.8-6.9c-1-0.7-2.8-0.9-3.7-1.6c-0.7,0-1.1-0.1-1.2,0.4c-0.3,0.6,0.6,1.5,0.9,1.9c0.8,1.1,1.7,2.4,2.7,3.2
			c0.8,0.6,1.7,1.1,2.4,1.8h0.3c-0.4-1.2-1.7-1.9-2.7-2.6c-0.9-0.6-1.3-1.8-2-2.6c0.1-0.4,0.1-0.3,0.2-0.6c3.1,0,5.2,2.9,6.6,4.8
			c0.6,0.8,1.6,1.3,1.7,2.7c-0.3,0-0.6,0-0.8-0.1h-0.3c0.5,1.5,2.3,1.4,3.6,2.2c2.5,1.6,4.6,4,6.8,6c0.8,0.7,2,1.3,2.3,2.5
			c-1.5-0.1-2.6-0.9-3.6-1.6c-0.1-0.1-0.3-0.2-0.4-0.3c-1.4-1-2.8-2.2-4.3-3.3c-0.4-0.4-0.8-0.8-1.1-1.2c-0.2-0.3-0.3-0.8-0.6-1
			c-0.3-0.3-0.8-0.4-1-0.8h-0.4c0,0.2,0,0.4,0.1,0.6c-10-8.4-19-18.2-26.6-29.2c0.2,0.1,0.3,0.2,0.5,0.4c3.3,2.6,4.2,2.5,4.4,2.2
			c0.1-0.1,0.1-0.2,0.1-0.2s0.2-1.1-0.9-2.4c-0.3-0.3-0.6-0.8-0.9-1.3c-0.1-0.2-0.3-0.4-0.4-0.6c-0.4-0.7-0.7-1.4-0.9-1.9
			c0,0,0-0.1,0-0.1c0-0.2-0.1-0.3-0.1-0.5c0-0.1,0-0.3,0.1-0.4c0,0,0-0.1,0-0.1c0.4-1,0.9-0.9,0.9-0.9s0.4-0.2,1.7,0.8
			s4.3,3.1,5.8,4.9c1.4,1.8,1.4,3.3,1.4,3.4c0,0,0,0.1,0,0.3c0,0.5,0.1,1.8,1.3,3.1c1.6,1.7,4.9,4.9,16.7,6.7c0.1,0,0.1,0,0.2,0
			l0.5-1.5l0,0l0,0l0,0l-0.1-0.1l-0.5,1.5c1.4,2.1,3,4.2,4.8,6c0,0,7,7.8,11,12.7c0,0,0.2,0.5-0.4,0c-0.7-0.4-3.6-1.8-5.2-1.6
			c-1.6,0.2-1.3,1.1-1.3,1.1s0.7,3.6,11.5,9.6c0,0,3.9,2.2,6.3,2.2c0,0,0.8,0.1,1.8-1c1-1.1,1.3-1,2-0.8c0.7,0.2,1.6,0.7,5,3.2
			c3.4,2.5,10,6.2,12.4,7.8c0.8,0.5,1.3,0.9,1.6,1.2c-4.8-0.4-10.2-1-13-1.4C368.8,255.4,367.6,254.9,366.4,254.4z M373.2,257.1
			c3.8,0.5,8.6,1,10.3,1.2l0,0c0,0.3-0.1,0.5-0.3,0.9c-0.3,0.7,0.3,1.1,0.9,1.4C380.4,259.5,376.8,258.4,373.2,257.1z M402.9,264.4
			c-2.5-0.3-5-0.7-7.4-1.2c1.5-0.1,2.5-0.2,3.8,0.1c1.8,0.4,3.7,0.8,3.8,1C403.2,264.4,403.1,264.4,402.9,264.4z M432.3,265.5
			c1.9-0.3,4.3-0.4,5.6-0.6c0.6-0.1,0.9-0.1,1.2-0.1C436.8,265.1,434.5,265.3,432.3,265.5z M442.5,264.4c-0.2-0.1-0.6-0.2-1.5-0.2
			c-0.8,0-1.7,0-2.5,0c-1.2,0-2.7,0.1-4.2,0.3c-1,0.1-2,0.3-2.8,0.5c-0.3,0-0.6,0.1-0.8,0.1c-1.8,0.3-2.7,0.5-3,0.7
			c-1.6,0.1-3.2,0.1-4.8,0.1c-5.8,0-11.5-0.4-17.1-1c0.2-0.2-0.2-0.4-0.5-0.5c-0.1-0.1-0.2-0.1-0.2-0.1s-0.2-0.1-0.8-0.3
			c0,0,0,0,0,0c0,0-0.1,0-0.1,0c-0.3-0.1-0.6-0.2-1.1-0.3c0,0,0,0,0,0c-0.3-0.1-0.7-0.2-1.1-0.3c0,0,0,0,0,0c-0.8-0.2-1.8-0.4-3-0.5
			c-0.7-0.1-1.3-0.2-2.1-0.2c0,0-2.3-0.2-4.3,0c-0.1,0-0.2,0-0.3,0c0,0,0,0,0.1,0h-0.1c-1.5-0.3-3-0.7-4.4-1c-0.8-0.3-2-1-1.5-1.6
			c0.4-0.5,0.4-1,0.2-1.4c3.2,0.2,7.3,0.4,7.3,0.4s8.5,0.3,13.1-0.1c2.1-0.2,1.5,0.9,1.5,0.9s-0.6,1,0.6,1.5c0,0,2.2,1.3,9.6,0.5
			c7.3-0.8,9-2.5,9-2.5s0.9-0.8-1-1.1c-0.1,0-0.2,0-0.3-0.1c0,0-0.1,0-0.1,0s0,0-0.1,0c0,0,0,0-0.1,0c0,0,0,0,0,0c0,0,0,0-0.1,0h0
			c0,0,0,0,0,0c0,0,0,0,0,0h-0.1c0,0,0,0,0,0c0,0,0,0,0,0h0c0,0,0,0,0,0c0,0,0,0-0.1,0c0,0,0,0,0,0h-0.1c0,0,0,0,0,0h-0.1
			c0,0,0,0,0,0h-0.1c0,0,0,0,0,0c0,0,0,0-0.1,0c0,0,0,0,0,0c0,0,0,0-0.1,0s0,0,0,0h-0.1c0,0,0,0,0,0c-0.1,0-0.2,0-0.4,0c0,0,0,0,0,0
			c0,0,0,0-0.1,0h-0.1c0,0,0,0,0,0h-0.1c0,0,0,0,0,0h0c0,0-0.1,0-0.1,0H424c0,0,0,0-0.1,0h0c0,0-0.1,0-0.1,0h-0.1c0,0,0,0-0.1,0
			h-0.1c0,0-0.1,0-0.1,0c0,0,0,0-0.1,0c0,0-0.1,0-0.1,0h-0.1c0,0-0.1,0-0.1,0h0c-0.1,0-0.1,0-0.2,0c-0.4-0.1-0.8-0.1-1.1-0.2
			l-0.5-0.1c-0.7-0.2-0.8-0.4,0-0.7c1.3-0.3,3.4-0.5,3.4-0.5s6.4-0.9,11.6-2.2c0,0,5.5-1.3,11-3.2c2.2-0.8,4-1.3,5.4-1.7l1.2-1.8
			c-0.2,0-0.5,0.1-0.7,0.1c-0.5,0.1-0.7,0.2-0.7,0.2s-3.5,0.8-9.2,3.1c-5.8,2.2-17.1,4.1-17.1,4.1s-1.1,0.1-2.4,0.3
			c0.5-0.1,1.1-0.2,1.7-0.3c-1.8,0.2-6.8,0.9-7.3,1.7c-0.2,0.4-0.2,0.7-0.1,0.9c0.2,0.4,0.6,0.6,0.6,0.6s1,0.6,4.8,0.8
			c0,0,1.3,0,1.3,0.1v0c0,0,0,0.1,0,0.1c0,0,0,0,0,0c0,0-0.1,0.1-0.2,0.1c-0.1,0.1-0.2,0.1-0.5,0.2c-0.8,0.3-2.4,0.9-7.9,1.6
			c-3.6,0.5-4.8,0.2-5.2,0c-0.2-0.1-0.2-0.2-0.2-0.2s0-0.1,0-0.1c0-0.1,0.1-0.2,0.2-0.5c0.1-0.1,0.1-0.2,0.1-0.3
			c0-0.4-0.3-0.8-0.9-1.2c0,0-0.2-0.1-0.7-0.3c0,0,0,0,0.1,0c-0.7-0.2-2.1-0.5-4.6-0.5c-4,0-12,0-19.5-0.4c-0.2-0.1-0.3-0.1-0.5-0.1
			l0,0l0.4,0c-0.4-0.3-0.8-0.6-1.3-0.9c0,0,0,0,0,0v0c0,0,0,0,0,0c0,0,0,0,0,0c0,0,0,0-0.1,0c-0.1-0.1-0.2-0.1-0.3-0.2
			c-2-1.1-10.7-6.8-13.3-8.6c-1.8-1.2-4.5-2.9-6.7-3.8c-0.2-0.1-0.3-0.1-0.4-0.2c-0.9-0.3-1.7-0.4-2.3-0.3c-1.6,0.5-1.4,1.1-2.3,1.6
			c-0.7,0.3-1.5,0.3-2.7-0.3c0,0,0,0-0.1,0c-0.4-0.2-0.9-0.4-1.5-0.7c-0.2-0.1-0.3-0.2-0.5-0.3c-0.3-0.1-0.6-0.3-0.8-0.4
			c-1.4-0.8-2.9-1.7-5.2-3.8c-0.2-0.2-0.4-0.4-0.6-0.6c-0.5-0.4-1-0.9-1.5-1.4c-3.6-3.4,4.6-0.3,4.6-0.3s1.8,0.7,1-1.1
			c-0.1-0.2-0.2-0.5-0.4-0.8c-0.1-0.2-0.2-0.3-0.3-0.5c-0.1-0.2-0.2-0.3-0.3-0.5c-0.2-0.2-0.3-0.5-0.5-0.7c-0.1-0.1-0.2-0.3-0.3-0.4
			c-0.2-0.3-0.4-0.5-0.6-0.8c-0.1-0.2-0.2-0.3-0.4-0.4c-0.2-0.3-0.5-0.6-0.7-0.8c-0.2-0.2-0.3-0.4-0.5-0.6c-0.2-0.2-0.4-0.5-0.6-0.8
			c-0.3-0.3-0.5-0.6-0.8-0.9c-0.1-0.2-0.3-0.3-0.4-0.5c-0.3-0.4-0.7-0.7-1-1.1c0,0,0,0,0,0c0,0,0,0,0,0l-0.1-0.1l-0.1-0.1
			c-0.5-0.6-1-1.1-1.6-1.7c-1.1-1.2-2.1-2.2-2.9-3.2c-1.5-1.7-2.7-3.3-4-5.3c0,0,0,0,0,0c10.3,1.5,15.8,1.6,15.8,1.6
			s13.5,0.5,17.1,0.5c3.1,0,3.1,1.4,3,1.8c0,0.1,0,0.1,0,0.1s-0.2,1-0.6,1.9c-0.3,0.5-0.8,1.9-0.9,3.3c0,0.8,0.1,1.7,0.5,2.3
			c0,0,1.7,4.1,12.5,4.4c0,0,9.5,0.8,16.1-2c2.1-0.9,2.9-1.8,3.1-2.7c0.4-2-2.4-3.8-2.4-3.8s-2.3-1.4-3.2-2.1
			c-0.4-0.3-0.6-0.7-0.6-1c0-0.3,0.1-0.6,0.2-0.8c0.2-0.5,0.8-1,1.6-1.4c0.8-0.4,3.5-1.9,15.3-4.9c11.8-3,18.8-3.4,18.8-3.4
			s0.1,0,0.1,0c1.1,2.7,2,4.3,3.7,6.1c1.8,2,4.8,3.6,8.2,4.9c3.5,1.3,1.9,3.7,1.9,3.7c-2,4.3-7.9,4.5-9.6,4.6
			c-1.7,0.2-5.3,0.5-8.7,1.3c-3.4,0.8-6.5,1.2-8.4,3.4c-1.9,2.2-1.1,4.5,0,6.8c1.1,2.4,4.1,3.7,8.2,3.5c4.1-0.2,6.7-1.4,9.2-2.4
			c2.5-1.1,6.8-2.3,8-2.7c1.3-0.4,3-1.1,4.3,0.7c1.4,2,2.8,4.9,3.5,7l1.5-0.3l0,0l0.1,0c0,0,0,0,0,0c0,0,0,0-0.1,0v0l0,0l-1.2,1.7
			c0.3,1.9-0.3,2.5-0.7,3.2c-0.4,0.8-1.7,1.7-1.1,3.4c0.6,1.7,4.8,1.1,7.2,0.4c2.4-0.8,4.5-1.4,6.1-2c1.6-0.6,2,0.2,2,0.2
			s0.7,0.5-1.6,1.7c-0.5,0.3-1.1,0.5-1.8,0.7c-0.1,0-0.2,0.1-0.3,0.1c-0.5,0.2-1.1,0.3-1.6,0.4c-0.1,0-0.3,0.1-0.4,0.1
			c-0.5,0.1-0.9,0.2-1.4,0.3c-0.2,0-0.4,0.1-0.6,0.1c-0.4,0.1-0.7,0.1-1.1,0.2c-0.2,0-0.4,0.1-0.6,0.1c-0.4,0-0.8,0.1-1,0.1
			c-0.2,0-0.5,0.1-0.7,0.1c-0.1,0-0.2,0-0.3,0c-0.1,0-0.1,0-0.2,0c-0.1,0-0.2,0-0.3,0c-0.1,0-0.2,0-0.2,0c0,0-0.1,0-0.1,0
			c-0.1,0-0.2,0-0.3,0c0,0,0,0-0.1,0c-0.5,0.1-1.1,0.3-2.3,0.7c-3.1,1.1-0.2,2-0.2,2c1.6,0.4,3,0.6,4.3,0.8
			C451.4,263,447,263.8,442.5,264.4z M420.5,255.8c0.2-0.1,0.4-0.1,0.4-0.1s0.5-0.1,1.3-0.2C421.6,255.6,421,255.7,420.5,255.8z
			 M501.5,242.1c-0.1,0.1-0.1,0.1-0.2,0.2c-12.9,8.5-27.3,14.9-42.5,18.9c-1.4-0.1-2.3-0.3-2.8-0.4c-1.2-0.2-2.2-0.4-2.5-1
			c0-0.1,0-0.1,0-0.2c0.1-0.4,1.4-0.4,1.4-0.4h0c0,0,0.3,0,0.7-0.1c1.2-0.2,4-0.6,7-1.4c0.5-0.1,1.1-0.3,1.6-0.5
			c4.5-1.4,5.5-2.8,5.3-3.8c0-0.1-0.1-0.3-0.2-0.4c0,0-0.1-0.1-0.1-0.1c-0.1-0.1-0.2-0.1-0.3-0.2c-0.1,0-0.1,0-0.2-0.1
			c-0.2,0-0.4-0.1-0.6-0.1c0,0-0.1,0-0.1,0c-0.3,0-0.5,0-0.9,0.1c0,0-0.1,0-0.1,0h0.1c-0.8,0.1-1.6,0.3-2.6,0.6
			c-2.7,0.9-6.7,2.1-7.6,2.3c-0.2,0.1-0.5,0.1-0.7,0.1c0,0,0,0,0.1,0c-0.3,0-0.7,0-1-0.1c0,0-0.1,0-0.1,0c-0.3-0.1-0.5-0.2-0.6-0.4
			c-0.2-0.3-0.3-0.6-0.3-1.1c0-0.4,0.2-1,0.7-1.5c1-1.1,1.1-2,1.1-2c0.1-0.5,0.1-1,0.1-1.5c0-0.1,0-0.2,0-0.4c0-0.2,0-0.3,0-0.5
			c0.2,0,0.3-0.1,0.3-0.1s6.6-1.5,9.3-2c2.8-0.5,9-1.8,11.7-3.1c2.7-1.3,4-2.3,4.3-3.1c0.3-0.8-1.1-1.2-1.1-1.2s-1.7-0.4-1.4-1
			c0.2-0.6,0.8-1.1,3.5-2.3c2.6-1.2,5.9-2.4,9.2-3.3c3.3-0.8,2.1,0.5,2.1,0.5s-2,2-2.2,2.8c-0.2,0.8,0.1,0.8,0.3,1
			c0.2,0.1,1.8,0.1,2.9-0.2c1.1-0.3,9.9-3.6,15.2-6.7c0.1-0.1,0.3-0.2,0.4-0.2l0.2-0.3c-1,1.8-1.5,2.8-1.5,2.8s-0.8,1.6-0.9,2.5
			c-0.1,0.9-0.7,0.8-0.7,0.8s-1.4-0.1-3.3,0.8c-0.1,0-0.1,0-0.2,0c0,0-0.1,0-0.2,0.1c-0.6,0.3-1.3,0.7-2.1,1.2
			c-0.1,0.1-0.3,0.2-0.4,0.3c-0.1,0.1-0.2,0.1-0.2,0.2c-2.1,1.7-3.6,3.2-4.4,4.1c0,0-0.1,0.1-0.1,0.2c-0.4,0.5-0.7,0.8-0.7,0.8
			s-1.2,1.6,0,1.6s3.9-1.4,5-2.3C502,241.3,501.5,242.1,501.5,242.1z M526.8,220.7c-1.8,2-2.8,2.9-2.8,2.9s-0.3,0.3-0.7,0.7l0,0
			c0,0,0,0,0,0.1c-0.2,0.3-0.4,0.6-0.6,0.8c-6,5.8-12.5,11.1-19.5,15.7c0.1-0.2,0.2-0.4,0.1-0.5h0v0c-0.4-0.3-1.8,0.7-1.8,0.7
			s-0.2,0.2-0.5,0.4c-0.4,0.3-0.9,0.7-1.5,1c-0.2,0.1-0.3,0.2-0.5,0.2c-0.1,0-0.2,0.1-0.3,0.1c-0.2,0.1-0.4,0.1-0.6,0.1
			c-1.1-0.1,1.4-2.5,1.4-2.5s1.5-1.6,3.2-2.6c0.6-0.3,1.2-0.6,1.8-0.7c2.5-0.4,2.9-1.1,4.1-2c0.4-0.3,0.7-0.7,1-1.1
			c0.6-0.9,1.2-2.3,2.9-5.3c0.1-0.2,0.2-0.3,0.3-0.5c1.6-0.9,2.7-1.5,3.4-1.9c0.8-0.4,1.2-0.7,1.6-0.9c3.4-2,7.4-4.5,8.5-5.3
			C526.4,220.2,528.6,218.7,526.8,220.7z M547.2,194.4c0.9-1.9,1.6-3.9,2.5-5.9c0.9-1.9,2.1-3.9,2-6.7c-0.1-0.1-0.2-0.3-0.3-0.5
			h-0.7c-0.7,0.6-1.6,0.8-2.4,1.4c-1.2,0.8-2.2,1.9-3.3,2.7c-0.5,0.4-1.2,0.7-1.6,1.2c-0.6,0.8-0.5,2.3-1.1,3v0.5
			c0.9-0.3,1.3-1.4,2-1.9c0.9-0.7,1.6-1.5,2.5-2.2c0.6-0.4,1.2-0.6,1.7-1c0.4,0.1,0.3,0.1,0.6,0.2c-0.1,2.9-1.6,4.9-2.5,7
			c-0.3,0.6-0.3,1.6-0.8,2c-0.2,0.2-0.7,0.3-0.9,0.5c-0.8,0.8-1.5,1.7-2.3,2.5c-0.7,1-1,2.3-1.8,3.3c0,0.3,0,0.6,0.1,0.8
			c0.1,0.1,0.3,0.2,0.5,0.2c1.2-1.2,2.4-2.2,3.5-3.5c-4.9,7.7-10.5,14.9-16.7,21.6c0.1-0.2,0.3-0.3,0.4-0.5c0.1-0.1,0.1-0.1,0.1-0.2
			c0.9-1.2,0.3-1.1,0.3-1.1s-0.2,0-0.7,0.2c-0.1,0-0.2,0.1-0.3,0.1c0,0-0.1,0-0.1,0v0c-0.4,0.2-1,0.5-1.7,1
			c-2.3,1.4-3.9,2.4-3.9,2.4s-4.9,2.8-8,4.6c0,0-0.1,0-0.1,0c0,0,0,0,0,0c2.2-3.5,4.9-6.6,6.9-8.8c2.5-2.8,5.4-7.2,5.4-7.2
			s1.8-3.1,1.9-4.6c0-0.2,0-0.4-0.1-0.5c0-0.1-0.1,0-0.2-0.1c-0.1,0-0.1-0.1-0.2-0.1c-0.7-0.1-2.2,0.6-4.4,2.3
			c-2,1.5-3.7,2.6-5.1,3.3c-0.1,0-0.1,0-0.2,0.1c-0.7,0.3-1.4,0.6-2.1,0.6c-1.8,0.2-2.5-0.9-2.7-2.1c-0.1-0.7,0-1.4,0-1.9
			c0.2-1.3,0.9-4.4,3-5.6c2.1-1.2,5.1-1.2,7.2-1.5c2.1-0.3,3.1-0.9,3.1-0.9s3.4-2.2,5.7-5.9s4.3-9.6,4.5-15.5v-0.2
			c0-0.6,0-1.1,0-1.6c0-0.2,0-0.4,0-0.6c0-0.4-0.1-0.8-0.2-1.1c0-0.1-0.1-0.3-0.1-0.4c-0.1-0.4-0.2-0.9-0.3-1.2h0
			c5.7-4.5,11-10.2,11-10.2s3.6-3.6,5.4-6.7c0.1-0.2,0.2-0.4,0.3-0.5c0,0,0.1-0.1,0.1-0.1c0.1-0.1,0.2-0.2,0.2-0.2c0,0,0,0,0,0
			c0,0,0.1,0,0.1,0c0,0,0,0,0,0c0,0.1,0,0.1,0,0.2c0,0,0,0,0,0.1v0c0,0-1.5,4.1-1,6.2v0c0,0,0,0,0,0c0,0,0,0.1,0,0.1
			c0,0.4,0.1,0.8,0.2,1.2c0,0.1,0.1,0.2,0.1,0.3c0.1,0.4,0.3,0.8,0.5,1.1c0,0,0,0,0,0c0,0,0.1,0,0.2,0.1c1.3,0.9,4.3-2.3,4.3-2.3
			s2-2.3,2.8-5.9c0.7-3.3,0.8-5,0.7-5.8c0-0.5-0.1-0.6-0.1-0.6s-0.7-1.1-0.3-2.4c0-0.1,0.1-0.3,0.2-0.5c0.7-2,3.2-8,5.3-10.7
			C564.3,157.2,557.5,177,547.2,194.4z M544.5,196.7c-0.2,1.1-1,2.1-1.8,2.6v0.1h-0.1c0.2-1.4,1.2-1.7,1.7-2.7H544.5z M566.9,130.6
			l-0.7,1.2c-0.2,0.4-0.3,0.9-0.1,1.3l0.3,0.8c0,0,0,0,0,0.1c0,0,0,0,0,0c0,0.1-0.1,0.1-0.1,0.2c-0.5,0.8-1.2,1.9-2,3.2
			c-3.6,6-4.2,10.8-4.2,10.8s-0.3,1.9-0.1,3c0,0.2,0.1,0.4,0.1,0.6c0,0,0,0,0,0c0,0.2,0.1,0.3,0.2,0.4c0,0,0,0,0,0c0,0,0,0,0,0
			c0.1,0.2,0.1,0.3,0.2,0.4c0,0,0,0,0,0c0,0.1,0,0.2,0.1,0.2c0,0.1,0,0.7-0.2,1.5c0,0.2-0.1,0.3-0.1,0.5c0,0.1-0.1,0.3-0.1,0.4
			c-0.1,0.3-0.2,0.7-0.3,1c0,0.1-0.1,0.2-0.1,0.4c-0.1,0.4-0.3,0.8-0.5,1.2c0,0,0,0.1-0.1,0.2c-1.2,2.3-2.3,2.9-2.3,2.9
			s-2.2,1.6-2.5,0.5c-0.3-1.1-0.2-2-0.1-2.8c0.1-0.7,0.8-4.5,0.7-5.9c-0.1-1.4-1.4-0.3-1.4-0.3s-0.3,0.3-0.8,1
			c-0.6,0.7-3.7,4.7-4.9,6.1c-2.8,3.3-5.4,5.7-12.3,11.2c0,0,0,0-0.1,0c0,0,0-0.1-0.1-0.1c-0.3-0.4-0.5-0.8-0.8-1.1
			c-0.3-0.4-0.6-0.7-0.8-0.9c-0.8-1-2.3-0.6-4.1-4.9c-1.8-4.3-2.2-8-2.2-10.6c0-0.4,0-0.7,0-1c0.2-2.5,0.8-3.5,2-4.6
			c1.2-1.1,6.4-0.6,6.4-0.6s2.5,0.5,4.8-3.2c1.7-2.8,2-6.9,1.8-10.1c-0.1-1.1-0.2-2.1-0.4-2.9c-0.7-3.1-1.8-5.8-6-6.2
			c-4.2-0.4-6.1,4.7-6.1,4.7s-0.9,2-1.7,3.1c-0.9,1.1-3.3,0.8-3.3,0.8c-1.1-0.1-2.3,0.3-3.6-2.3c-1.2-2.6-4.1-9.4-4.1-9.4
			c-1-2.3-1.6-4.3-2-5.9l-2.1-0.8l2.1,0.8c2.9-1.6,7.9-4.5,11.5-7.5c5.3-4.5,10.6-9.2,11.9-10.4c1.3-1.2,2.5-2.1,3.7-2.1
			s2.1,0.9,2.8,4.1c0.7,3.2,0.9,5.8,1.2,7.4c0.3,1.5,0.8,3.4,2.7,3.7c1.8,0.4,4.3-1.2,5.3-2c0.2-0.2,0.5-0.5,0.8-0.9c0,0,0,0,0-0.1
			c0.1-0.2,0.3-0.4,0.4-0.6c0.7-1.2,1.4-3.1,1.3-5.2c0,0,0.2-4.6-2.2-8.9c0,0-1-1.8-1.4-2.2c-0.2-0.3-0.4-0.7,0-1.5
			c0.1-0.2,0.2-0.5,0.4-0.7c0.5-0.8,1.3-1.9,2.6-2.6c1.3-0.7,2.5-0.9,3.2-1.1c0,0,0.8-0.2,1.8-0.7l0,0h0c0,0,0,0.1,0,0.1
			c1.5,4.7,3.2,12.5,3.2,12.5s0.5,2.3,0.6,3.3c0.1,1.1-0.2,1.1-0.7,0.5c-0.5-0.6-0.9-0.2-0.9-0.2s-0.5,0.2-0.5,2.2s0.2,6.7,0.6,10.3
			c0.4,4.3,1.8,6.1,1.8,6.1s1.2,1.8,1.5-1.6c0-0.1,0-0.2,0-0.3c0,1.6,0.1,3.1,0.1,4.7C567.1,124.5,567,127.6,566.9,130.6z
			 M561.8,83.8C561.8,83.8,561.8,83.8,561.8,83.8c0,0.1,0.1,0.2,0.1,0.4c0,0.1,0.1,0.3,0.1,0.4C562,84.3,561.9,84,561.8,83.8z
			 M561.8,83.8C561.8,83.8,561.8,83.8,561.8,83.8c0,0.1,0.1,0.2,0.1,0.4c0,0.1,0.1,0.3,0.1,0.4C562,84.3,561.9,84,561.8,83.8z
			 M384.2,256.5C384.2,256.5,384.2,256.5,384.2,256.5C384.3,256.5,384.3,256.5,384.2,256.5C384.3,256.5,384.3,256.5,384.2,256.5
			C384.3,256.5,384.3,256.5,384.2,256.5z M454.1,247.4L454.1,247.4L454.1,247.4L454.1,247.4z M454.1,247.4L454.1,247.4L454.1,247.4
			L454.1,247.4z"/>
		<path class="st2" d="M344.2,226.9l0.3,0.4c0,0,0,0-0.1-0.1C344.3,227.1,344.3,227,344.2,226.9z"/>
		<path class="st2" d="M344.6,227.4C344.6,227.4,344.5,227.3,344.6,227.4L344.6,227.4C344.6,227.4,344.6,227.4,344.6,227.4z"/>
		<path class="st2" d="M321.6,92.8L321.6,92.8L321.6,92.8z"/>
		<polygon class="st2" points="433.4,208.8 433.4,208.8 433.4,208.8 		"/>
	</g>
</g>
<g>
	<path class="st3" d="M15,178.1c0.9,1.5,4.3,3.7,4.3,3.7c1.9,1.2,1.9,3.3-0.1,4.7l-0.3,0.2L2,196.8l1.9,3.2l0,0L13,215
		c0.1,0.2,0.2,0.4,0.3,0.5c0,0-0.1-0.1-0.1-0.2c1.1,2.1,0.2,4-2.1,4.2c0,0-4,0.4-5.5,1.3c-2.9,1.8-3.7,5.9-1.7,9.2
		c2,3.3,6,4.5,9,2.7c1.5-0.9,3.7-4.3,3.7-4.3c1.2-1.9,3.3-1.9,4.7,0.1l0.2,0.3l3.7,6.1l6.5,10.7l0,0l-0.2-0.3l16.8-10.2l0.3-0.2
		c2-1.4,2.1-3.4,0.1-4.7c0,0-3.3-2.1-4.3-3.7c-1.8-2.9-0.6-7,2.7-9c3.3-2,7.4-1.2,9.2,1.7c0.9,1.5,1.3,5.5,1.3,5.5
		c0.2,2.3,2.1,3.2,4.2,2.1c-0.1,0.1-0.1,0.1-0.2,0.1c0.1,0,0.2-0.2,0.5-0.3l18.1-11c-0.3-0.6-1.1-1.9-1.6-2.7l-8.5-13.9
		c-0.1-0.2-0.2-0.4-0.3-0.5c0,0,0.1,0.1,0.1,0.2c-1.1-2.1-0.2-4,2.1-4.2c0,0,4-0.4,5.5-1.3c2.9-1.8,3.7-5.9,1.7-9.2
		c-2-3.3-6-4.5-9-2.7c-1.5,0.9-3.7,4.3-3.7,4.3c-1.2,1.9-3.3,1.9-4.7-0.1l-0.2-0.3l-4.4-7.3l0,0l-4.3-7c-0.2-0.3-2.2-3.7-2.2-3.7
		l-18.1,11c-0.2,0.1-0.4,0.2-0.5,0.3c0,0,0.1-0.1,0.2-0.1c-2.1,1.1-4,0.2-4.2-2.1c0,0-0.4-4-1.3-5.5c-1.8-2.9-5.9-3.7-9.2-1.7
		C14.4,171.1,13.2,175.1,15,178.1z"/>
</g>
<g>
	<g>
		<polygon class="st4" points="115.6,141.8 112.8,142.2 113.4,147.1 108.7,147.7 108,142.8 105.2,143.2 106.9,156 109.8,155.6 
			109,150.2 113.8,149.6 114.5,154.9 117.4,154.5 		"/>
	</g>
	<g>
		<g>
			<path class="st4" d="M126.1,141.3c-1.2-0.6-2.7-0.8-4-0.5c-1.3,0.2-2.6,0.4-3.9,0.8l1.7,12.6l2.8-0.4l-0.6-4.6c0.3,0,0.7,0,1-0.1
				c1.5-0.1,2.9-0.8,4-1.9l0,0.1c0.7-0.9,1-2.1,0.8-3.2C127.7,143,127.1,141.9,126.1,141.3z M122.8,146.9c-0.3,0.1-0.6,0.1-1,0.1
				l-0.5-3.8c0.4-0.1,0.8-0.2,1.2-0.3l0,0c0.1,0,0.2-0.1,0.4-0.1c1.1-0.1,2,0.6,2.2,1.7c0,0.1,0,0.2,0,0.4
				C125,146,124,147,122.8,146.9z"/>
		</g>
	</g>
	<g>
		<g>
			<path class="st4" d="M175.7,128.3c-0.8-5.9-5.7-10-11-9.3c-2.7,0.4-7.8,3.8-7.8,3.8c-2.9,2-5.8,0.6-6.5-3l-0.1-0.6l-1.5-10.8
				l-2.7-19.1l0,0l0.1,0.5l-29.8,4.2l-0.6,0.1c-3.6,0.8-5,3.6-3,6.5c0,0,3.4,5,3.8,7.7c0.7,5.2-3.4,10.1-9.3,11
				c-5.9,0.8-11.2-2.7-11.9-8c-0.4-2.7,1.5-8.5,1.5-8.5c1.1-3.4-1-5.7-4.7-5.4c0.2,0,0.3-0.1,0.3-0.1c-0.1,0-0.4,0.1-0.8,0.1
				l-32.1,4.5c0.1,1,0.5,3.3,0.7,4.8l3.5,24.7c0.1,0.4,0.1,0.7,0.1,0.8c0-0.1,0-0.2-0.1-0.3c0.3,3.7-2.1,5.8-5.4,4.7
				c0,0-5.8-1.9-8.5-1.5c-5.2,0.7-8.8,6.1-8,11.9c0.8,5.9,5.7,10,11,9.3c2.7-0.4,7.7-3.8,7.7-3.8c2.9-2,5.8-0.6,6.5,3l0.1,0.6
				l1.8,13l0,0l1.8,12.5c0.1,0.5,0.9,6.6,0.9,6.6l32.1-4.5c0.4-0.1,0.7-0.1,0.8-0.1c-0.1,0-0.2,0-0.3,0.1c3.7-0.3,5.8,2.1,4.7,5.4
				c0,0-1.9,5.8-1.5,8.5c0.7,5.2,6.1,8.8,11.9,8c5.8-0.8,10-5.7,9.3-11c-0.4-2.7-3.8-7.7-3.8-7.7c-2-2.9-0.6-5.8,3-6.5l0.6-0.1
				l29.8-4.2l-0.8-5.7l0,0l-3.7-26.5c-0.1-0.4-0.1-0.7-0.1-0.8c0,0.1,0,0.2,0.1,0.3c-0.3-3.7,2.1-5.8,5.4-4.7c0,0,5.8,1.9,8.5,1.5
				C172.9,139.5,176.5,134.1,175.7,128.3z M131,166.4l-34.8,4.7c-1.4,0.2-2.7-0.8-2.9-2.2l-4.8-34.9c0,0,0,0,0,0
				c-0.2-1.4,0.8-2.7,2.2-2.9l34.8-4.7l0,0c0,0,0,0,0,0c1.4-0.2,2.7,0.8,2.9,2.2l4.8,34.9c0,0,0,0,0,0
				C133.4,165,132.4,166.3,131,166.4z"/>
		</g>
	</g>
	<g>
		<g>
			<path class="st4" d="M103.8,147.3c-0.1-1.1-0.8-2.2-1.8-2.8c-1.2-0.6-2.7-0.8-4-0.5c-1.3,0.2-2.6,0.4-3.8,0.8l1.7,12.6l2.9-0.4
				l-0.6-4.6c0.3,0,0.7,0,1-0.1c1.5-0.1,2.9-0.8,4-1.9l0,0C103.7,149.6,104,148.4,103.8,147.3z M98.8,150.2c-0.3,0-0.7,0.1-1,0
				l-0.5-3.8c0.4-0.1,0.8-0.2,1.2-0.3l0,0c0.1,0,0.2-0.1,0.3-0.1c1-0.1,2,0.6,2.2,1.6c0,0.1,0,0.2,0,0.4
				C101,149.3,100,150.3,98.8,150.2z"/>
		</g>
	</g>
</g>
<g>
	<g class="st0">
		<polygon class="st5" points="243.1,89.4 243.1,89.4 243.1,89.4 		"/>
	</g>
	<g class="st0">
		<ellipse transform="matrix(0.9892 -0.1465 0.1465 0.9892 -13.8561 37.0052)" class="st5" cx="244.2" cy="112.5" rx="0" ry="0"/>
	</g>
	<g class="st0">
		<polygon class="st5" points="243.1,89.5 243.1,89.4 243.1,89.4 		"/>
	</g>
	<g class="st0">
		<path class="st5" d="M244.7,100.1c-0.2-3.1-0.6-5.6-0.6-5.3C244.4,96.7,244.6,98.3,244.7,100.1z"/>
	</g>
	<g class="st0">
		<path class="st5" d="M242.9,88.8L242.9,88.8C242.9,88.8,242.9,88.8,242.9,88.8C242.9,88.8,242.9,88.8,242.9,88.8z"/>
	</g>
	<g class="st0">
		<path class="st5" d="M242.8,88.3L242.8,88.3C242.8,88.3,242.8,88.3,242.8,88.3z"/>
	</g>
	<g class="st0">
		<polygon class="st5" points="243.3,90.4 243.3,90.4 243.3,90.4 		"/>
	</g>
	<g class="st0">
		<path class="st5" d="M241.6,84.5L241.6,84.5C241.6,84.5,241.6,84.5,241.6,84.5L241.6,84.5L241.6,84.5L241.6,84.5L241.6,84.5
			C241.6,84.5,241.6,84.5,241.6,84.5L241.6,84.5C241.6,84.5,241.6,84.5,241.6,84.5z"/>
	</g>
	<g class="st0">
		<path class="st5" d="M241.6,84.5L241.6,84.5c-0.2,1.9-0.4,3.7-0.8,5.6C241.2,88.1,241.4,86.3,241.6,84.5z"/>
	</g>
	<g class="st0">
		<path class="st5" d="M244.8,101.4C244.8,101.5,244.8,101.5,244.8,101.4C244.7,100.4,244.7,100.2,244.8,101.4z"/>
	</g>
	<g class="st0">
		<polygon class="st5" points="241.6,84.5 241.6,84.5 241.6,84.5 		"/>
	</g>
	<g class="st0">
		<polygon class="st5" points="244.2,112.5 244.2,112.5 244.2,112.5 		"/>
	</g>
	<g class="st0">
		<path class="st5" d="M242.7,88.2L242.7,88.2C242.7,88.2,242.7,88.2,242.7,88.2z"/>
	</g>
	<g class="st0">
		<path class="st5" d="M244.3,112c0-0.1,0-0.3,0-0.4c0,0,0,0,0,0C244.4,111.8,244.3,111.9,244.3,112z"/>
	</g>
	<g class="st0">
		<path class="st5" d="M244.3,112.3L244.3,112.3C244.3,112.3,244.3,112.3,244.3,112.3C244.3,112.2,244.3,112.2,244.3,112.3l0-0.1
			l0,0c0,0,0-0.1,0-0.1l0,0c0,0,0-0.1,0-0.1C244.3,112,244.3,112.1,244.3,112.3z"/>
	</g>
	<g class="st0">
		<path class="st5" d="M241.7,84.8L241.7,84.8C241.7,84.8,241.7,84.8,241.7,84.8L241.7,84.8c0,0,0,0.1,0,0.1
			C241.7,84.9,241.7,84.8,241.7,84.8z"/>
	</g>
	<g class="st0">
		<path class="st5" d="M244.3,112.3C244.3,112.3,244.3,112.3,244.3,112.3C244.3,112.3,244.3,112.4,244.3,112.3L244.3,112.3
			C244.3,112.4,244.3,112.3,244.3,112.3C244.3,112.3,244.3,112.3,244.3,112.3C244.3,112.3,244.3,112.3,244.3,112.3z"/>
	</g>
	<g class="st0">
		<g>
			<path class="st5" d="M314.8,92.9c-3.5-1-11.4,0.5-11.4,0.5c-4.6,0.9-7.3-2.3-6.3-7.1l0.2-0.8l3.9-13.8l6.8-24.5l0,0l-0.2,0.6
				l-38.3-10.7l-0.8-0.2c-4.8-1-7.9,1.7-7.1,6.3c0,0,1.5,7.9,0.5,11.4c-1.9,6.7-9.5,10.5-17,8.4c-7.5-2.1-12.1-9.2-10.2-15.9
				c1-3.5,6.3-9.5,6.3-9.5c3.1-3.5,1.8-7.4-2.8-9.1c0.2,0,0.4,0.1,0.5,0.1c-0.2,0-0.5-0.1-1.1-0.3L196.7,17
				c-0.4,1.3-1.2,4.2-1.7,6.1l-8.8,31.7c-0.2,0.5-0.2,0.9-0.3,1.1c0-0.1,0.1-0.2,0.1-0.5c-1.6,4.6-5.6,5.9-9.1,2.8
				c0,0-6-5.3-9.5-6.3c-6.7-1.9-13.8,2.7-15.9,10.2c-2.1,7.5,1.7,15.1,8.4,17c3.5,1,11.4-0.5,11.4-0.5c4.6-0.9,7.3,2.3,6.3,7.1
				l-0.2,0.8l-4.7,16.7l0,0l-4.5,16c-0.2,0.6-2.4,8.4-2.4,8.4l41.2,11.5c0.5,0.1,0.9,0.2,1.1,0.3c-0.1,0-0.2-0.1-0.5-0.1
				c4.6,1.6,5.9,5.6,2.8,9.1c0,0-5.3,6-6.3,9.5c-1.9,6.7,2.7,13.8,10.2,15.9c7.5,2.1,15.1-1.7,17-8.4c1-3.5-0.5-11.4-0.5-11.4
				c-0.9-4.6,2.3-7.3,7.1-6.3l0.8,0.2l38.3,10.7l2-7.3l0,0l9.5-34c0.2-0.5,0.2-0.9,0.3-1.1c0,0.1-0.1,0.2-0.1,0.5
				c1.6-4.6,5.6-5.9,9.1-2.8c0,0,6,5.3,9.5,6.3c6.7,1.9,13.8-2.7,15.9-10.2C325.2,102.4,321.5,94.8,314.8,92.9z M244.3,112.4
				C244.3,112.4,244.3,112.4,244.3,112.4L244.3,112.4C244.3,112.4,244.3,112.4,244.3,112.4z M244.3,112
				C244.3,112,244.3,112,244.3,112c0,0,0,0.1,0,0.1l0,0l0,0.1l0,0c0,0,0,0.1,0,0.1c0,0,0,0,0,0l0,0.1c0,0.1,0,0.1,0,0.2c0,0,0,0,0,0
				l0,0c0,0,0,0,0,0c0,0,0,0,0,0c0,0,0,0,0,0l0,0c0,0,0,0,0,0l0,0c-1.3,7-10.4,21.9-30.9,19.2c1.3-11.2,8-19.3,13.9-23.8
				c2.9-2.1,5.5-4.5,7.8-7.2l0,0c4,3.1,7.1,7.2,9.2,11.8l0,0c-2.1-4.6-5.2-8.6-9.2-11.8l0,0l0,0c4,3.1,7.1,7.2,9.2,11.8l0,0
				c-2.1-4.6-5.2-8.6-9.2-11.8c0,0,0,0,0,0c0,0,0,0,0,0c0,0,0,0,0,0c4.9-5.7,6.1-10.5,6.6-16.3l0,0l0,0l0,0
				c-0.4,4.7-1.2,10-6.6,16.3c-1.5-1.2-3-2.3-4.5-3.4c-4.3-2.9-8.3-5-14-8.4c-13.7-7.6-14.2-21.1-11.5-29.4c3.9-0.5,8-0.3,11.8,0.6
				l0,0c10.5,2.6,20.2,10.6,24.8,24.2l0,0l0.1,0.3c0-0.1-0.1-0.2-0.1-0.3l0,0l0.1,0.3l0-0.1c0,0,0,0.1,0,0.1v0h0
				c3.1,9.4,3.8,19.6,2.7,26.5C244.4,111.5,244.4,111.8,244.3,112z M270.1,87.7c-3.4,10.9-13.7,18.5-24.6,25.2
				c2.1-10.8,1.5-18.3,0.2-28.7c-1.1-10.5,11.5-18.5,19.9-16.7l0,0C269.9,71.1,272.5,78.8,270.1,87.7z"/>
		</g>
	</g>
	<g class="st0">
		<path class="st5" d="M244.2,95.3c0,0.3,0.1,0.7,0.1,1C244.3,95.9,244.2,95.6,244.2,95.3z"/>
	</g>
	<g class="st0">
		<polygon class="st5" points="244.2,112.4 244.2,112.4 244.2,112.5 		"/>
	</g>
	<g class="st0">
		<path class="st5" d="M244.4,97.1c0.1,0.6,0.1,1.3,0.2,2C244.6,98.4,244.5,97.8,244.4,97.1z"/>
	</g>
	<g class="st0">
		<path class="st5" d="M244.3,112.5C244.3,112.5,244.3,112.5,244.3,112.5L244.3,112.5C244.3,112.5,244.3,112.5,244.3,112.5z"/>
	</g>
</g>
<path class="st6" d="M241.6,84.5c-0.4,4.7-1.2,10-6.6,16.3c4,3.2,7.1,7.2,9.2,11.8c0,0,0-0.1,0-0.2l0-0.1c0,0,0,0,0,0
	c0,0,0-0.1,0-0.1l0,0l0-0.1l0,0c0,0,0-0.1,0-0.1c0,0,0,0,0,0c1-7.5,0.6-14.5-1.1-21.8c0,0,0,0,0,0l0-0.1l0,0l0-0.1l0,0
	c0,0-0.3-1.2-0.5-1.7l0,0l0-0.1l0,0c-0.3-1.1-0.6-2.3-1-3.4l0-0.1L241.6,84.5"/>
</svg>
