<svg xmlns="http://www.w3.org/2000/svg" viewBox="0 0 165 35">
  <path fill="#D5E1E6" d="M12 35c-.7-5.2 1.5-9.6 3.7-12.3 4.7-5.8 4.4-9.3 3.9-12.3 2.5 3.8 4 8.4 4.4 12.5.1 3.3-2.4 11-12 12.1zm9.4-25.2C19.7 5.1 24.6.2 28.6 0 31 1.2 33.1 4.4 33 8.7c-.3 5.3-4.2 9.9-8.4 14.1-.3-5.1-1.4-8.4-3.2-13z"/>
  <path fill="#D5E1E6" d="M8.6 15.3c-7.1-1.9-8.9-8-8.5-12C7 .6 14.4 3.4 18.7 9.1c3 4.1 4.9 9.2 5.3 13.8-2.1-2.6-4.7-4.2-8-5.4-2.3-.8-4.4-1.4-7.4-2.2z"/>
  <path fill="#FFF" d="M23.9 22.9c-1.5-1.9-3.3-3.3-5.5-4.3 1.8-3.5 1.5-5.9 1.2-8.1 0 0 0 .1.1.1 1.2 1.6 4 7.5 4.2 12.3z"/>
  <path fill="#D5E1E6" d="M42.6 19.5l.4 1.8h.1l.3-1.9 1.8-6.6h3.2l-3.6 10.7c-.3.9-.6 1.7-.9 2.4-.3.7-.6 1.4-.9 1.9-.3.5-.7 1-1.1 1.2-.4.3-.9.4-1.4.4-.8 0-1.5-.1-2-.4l.6-2.5c.2.1.5.1.7.1.4 0 .7-.2 1.1-.5.3-.3.6-.9.8-1.7l-5-11.8h3.7l2.2 6.9zm6.8-10c0-.5.2-.8.5-1.2s.8-.5 1.4-.5c.6 0 1.1.2 1.5.5.4.3.6.7.6 1.2s-.2.8-.6 1.1c-.4.3-.9.5-1.5.5s-1.1-.2-1.4-.5c-.3-.3-.5-.6-.5-1.1zm.5 3.3H53v11.8h-3.1V12.8zm5.5-3.3c0-.5.2-.8.5-1.2s.8-.5 1.4-.5c.6 0 1.1.2 1.5.5.4.3.6.7.6 1.2s-.2.8-.6 1.1c-.4.3-.9.5-1.5.5s-1.1-.2-1.4-.5c-.3-.3-.5-.6-.5-1.1zm.4 3.3h3.1v11.8h-3.1V12.8z"/>
  <path fill="#FFF" d="M60.7 12.8h1.9v-.7c0-.7.1-1.4.2-1.9s.3-1 .6-1.3c.3-.3.6-.6 1-.8.4-.1 1-.1 1.6-.1.5 0 1 0 1.3.1.4.1.8.2 1.2.4l-.4 1.5c-.4-.2-.7-.3-1-.3-.3 0-.6-.1-.9-.1-.4 0-.7.1-1 .2-.2.1-.4.3-.5.6-.1.2-.2.5-.2.9v1.5h3.2v1.7h-3.2v10.2h-1.9V14.5h-1.9v-1.7zm14.6 1.9c-.5-.2-.9-.2-1.4-.2-.7 0-1.2.2-1.6.6-.4.4-.6.8-.7 1.4v8.3h-1.9v-12H71l.4 1.4h.1c.3-.5.7-1 1.1-1.2.4-.3 1-.4 1.6-.4.5 0 1 .1 1.5.2l-.4 1.9zm1.9-1c.6-.4 1.3-.6 2.1-.8.8-.2 1.6-.3 2.5-.3.8 0 1.5.1 2 .3.5.2.9.5 1.1.9.3.4.4.7.5 1.2s.1.9.1 1.3c0 .9 0 1.9-.1 2.8 0 .9-.1 1.8-.1 2.6 0 .6 0 1.1.1 1.7 0 .5.1 1 .3 1.4h-1.4l-.5-1.7h-.1c-.1.2-.3.4-.5.7-.2.2-.5.4-.8.6-.3.2-.6.3-1 .4-.4.1-.8.2-1.4.2-.5 0-1-.1-1.4-.2-.4-.2-.8-.4-1.1-.7-.3-.3-.6-.6-.7-1.1-.2-.4-.3-.9-.3-1.4 0-.7.1-1.3.4-1.7.3-.5.7-.8 1.2-1.1.5-.3 1.1-.5 1.9-.6.7-.1 1.5-.2 2.4-.2h1.4c0-.5.1-.9.1-1.3 0-.9-.2-1.5-.5-1.8-.3-.3-1-.5-1.9-.5-.3 0-.6 0-.9.1-.3 0-.6.1-1 .2l-.9.3c-.3.1-.6.2-.8.4l-.7-1.7zm3.4 9.5c.4 0 .8-.1 1.2-.2.3-.1.6-.3.9-.5.3-.2.5-.4.6-.6.2-.2.3-.4.4-.6v-2h-1.4c-.5 0-1 0-1.4.1-.5.1-.9.2-1.2.3-.4.2-.6.4-.9.6-.2.3-.3.6-.3 1 0 .6.2 1 .6 1.4s.9.5 1.5.5zm14.8 1.5V18c0-.6 0-1.2-.1-1.6-.1-.5-.2-.9-.3-1.2-.2-.3-.4-.6-.7-.7-.3-.2-.7-.2-1.2-.2-.7 0-1.3.2-1.8.7-.5.4-.8 1-1 1.7v8.1h-1.9v-12h1.3l.4 1.4h.1c.4-.5.9-.9 1.5-1.2.6-.3 1.3-.5 2.2-.5.8 0 1.4.1 1.9.4.5.3.9.8 1.1 1.5.4-.6.9-1.1 1.5-1.4.6-.3 1.4-.5 2.2-.5.7 0 1.2.1 1.7.2.5.2.8.4 1.1.8.3.4.5.9.7 1.5.1.6.2 1.5.2 2.5v7.1h-1.9v-7.1c0-.6 0-1.1-.1-1.5-.1-.4-.2-.8-.3-1-.2-.3-.4-.5-.7-.6-.3-.1-.7-.2-1.2-.2-.8 0-1.4.2-1.9.7-.4.4-.8 1.1-1 1.9v7.9h-1.8zm20-1c-.5.4-1.1.7-1.8.9-.7.2-1.5.3-2.3.3-.9 0-1.7-.1-2.4-.4-.7-.3-1.2-.7-1.6-1.3-.4-.5-.7-1.2-1-2-.2-.8-.3-1.6-.3-2.6 0-2 .5-3.6 1.4-4.6.9-1.1 2.2-1.6 3.9-1.6.5 0 1.1.1 1.6.2s1 .3 1.4.7c.4.3.8.8 1 1.4.3.6.4 1.4.4 2.4 0 .5 0 1.1-.1 1.7H108c0 .7.1 1.3.2 1.8s.4 1 .7 1.4c.3.4.7.7 1.2.9.5.2 1.1.3 1.8.3.5 0 1.1-.1 1.6-.3.5-.2.9-.4 1.2-.7l.7 1.5zm-4.1-9.5c-.9 0-1.7.2-2.2.7-.6.5-.9 1.3-1 2.5h5.9c0-1.2-.2-2-.7-2.5-.5-.4-1.2-.7-2-.7zm15.1-1.4l2.7 6.9.6 2.3.5-2.3 2.1-6.9h1.8l-4 12.1h-.9l-3.1-7.8-.5-1.9h-.1l-.5 2-3 7.8h-.9L117 12.9h2.1l2.4 6.9.4 2.3.6-2.3L125 13h1.4zm8.9 6c0-2 .4-3.5 1.3-4.6.9-1.1 2.2-1.6 3.9-1.6.9 0 1.7.1 2.3.4.7.3 1.2.7 1.6 1.3.4.5.7 1.2 1 2 .2.8.3 1.6.3 2.5 0 2-.4 3.5-1.3 4.6-.9 1.1-2.2 1.6-3.9 1.6-.9 0-1.7-.1-2.3-.4-.7-.3-1.2-.7-1.6-1.3-.4-.5-.7-1.2-1-2-.2-.8-.3-1.6-.3-2.5zm2 0c0 .6.1 1.2.2 1.7.1.6.3 1 .6 1.4.3.4.6.7 1 1 .4.3.9.4 1.5.4 2.2 0 3.2-1.5 3.2-4.5 0-.6-.1-1.2-.2-1.8s-.3-1-.6-1.4c-.3-.4-.6-.7-1-1-.4-.2-.9-.4-1.5-.4-2.1 0-3.2 1.5-3.2 4.6zm16.4-4.1c-.5-.2-.9-.2-1.4-.2-.7 0-1.2.2-1.6.6-.4.4-.6.8-.7 1.4v8.3h-2v-12h1.3l.4 1.4h.1c.3-.5.7-1 1.1-1.2.4-.3 1-.4 1.6-.4.5 0 1 .1 1.5.2l-.3 1.9zm5 4.7h-1.1v5.3h-1.9V8.1h1.9v10.1l1-.3 3.7-5h2.2l-3.6 4.8-1 .8 1.2.9 4 5.4h-2.4l-4-5.4z"/>
</svg>