<svg id="Res" xmlns="http://www.w3.org/2000/svg" width="1140" height="480" viewBox="0 0 1140 480">
  <defs>
    <style>
      .cls-1, .cls-10 {
        fill: #fff;
      }

      .cls-2 {
        fill: #d1d1d1;
      }

      .cls-10, .cls-11, .cls-2 {
        fill-rule: evenodd;
      }

      .cls-3 {
        fill: #247ba0;
      }

      .cls-4 {
        fill: #70c1b3;
      }

      .cls-5 {
        fill: #b2dbbf;
      }

      .cls-6 {
        fill: #ff1654;
      }

      .cls-7 {
        fill: gray;
      }

      .cls-8 {
        fill: #4d4d4d;
      }

      .cls-9 {
        fill: #bacd65;
      }

      .cls-11 {
        fill: #a5d2e5;
      }
    </style>
  </defs>
  <rect class="cls-1" width="1140" height="480"/>
  <g id="Res-2" data-name="Res">
    <g id="lines">
      <path class="cls-2" d="M665,37.784l0.669-.775L839,209.216l-0.669.775Z"/>
      <path class="cls-2" d="M836.964,211.5l0.072,1-181,13-0.072-1Z"/>
      <path class="cls-2" d="M836.511,210.9l0.978,0.208-29,136-0.978-.208Z"/>
      <path class="cls-2" d="M807.83,346.53l0.34,0.94-141,51-0.34-.94Z"/>
      <path class="cls-2" d="M807.7,347.4l0.6-.8,103,77-0.6.8Z"/>
      <path class="cls-2" d="M838.65,212.357l0.7-.714,174,171-0.7.714Z"/>
      <path class="cls-2" d="M1012.82,382.535l0.36,0.93-102.995,41-0.37-.93Z"/>
      <path class="cls-2" d="M1012.82,381.466l0.36-.932,95,37-0.36.932Z"/>
      <path class="cls-2" d="M836.884,213.486l0.232-.972,180,43-0.24.972Z"/>
      <path class="cls-2" d="M840.235,213.442l-0.47-.884,209.005-111,0.46,0.884Z"/>
      <path class="cls-2" d="M839.456,213.205l-0.912-.41,71-158,0.912,0.41Z"/>
      <path class="cls-2" d="M667.212,401.547l-0.424.906-143-67,0.424-.906Z"/>
      <path class="cls-2" d="M656.033,225.5l-0.066,1-228-15,0.066-1Z"/>
      <path class="cls-2" d="M655.678,224.618l0.644,0.764-134,113-0.644-.764Z"/>
      <path class="cls-2" d="M522.758,337.563l0.484,0.874-103,57-0.484-.874Z"/>
      <path class="cls-2" d="M420.089,395.508l-0.178.984-133-24,0.178-.984Z"/>
      <path class="cls-2" d="M429.617,206.678l0.766,0.644-142,169-0.766-.644Z"/>
      <path class="cls-2" d="M429.859,208.52l0.282,0.96-133,39-0.282-.96Z"/>
      <path class="cls-2" d="M296.981,247.5l0.038,1-133,5-0.038-1Z"/>
      <path class="cls-2" d="M163.524,252.847l0.952,0.306-38,118-0.952-.306Z"/>
      <path class="cls-2" d="M297.5,247.961l1,0.078-10,128-1-.078Z"/>
      <path class="cls-2" d="M288.015,375.5l-0.03,1-162-5,0.03-1Z"/>
      <path class="cls-2" d="M126.026,370.5l-0.052,1-115-6,0.052-1Z"/>
      <path class="cls-2" d="M11.3,365.4l-0.6-.8,153-114,0.6,0.8Z"/>
      <path class="cls-2" d="M524.189,338.537l-0.378.926-226-92,0.378-.926Z"/>
      <path class="cls-2" d="M809.165,345.528l-0.33.944-381-133,0.33-.944Z"/>
      <path class="cls-2" d="M1020.8,252.543l0.4,0.914-214,95-0.406-.914Z"/>
      <path class="cls-2" d="M653.5,229.041l-1-.082,15-182,1,0.082Z"/>
      <path class="cls-2" d="M524.4,339.7l-0.794.608-99-129,0.794-.608Z"/>
      <path class="cls-2" d="M656.5,223.014l1-.028,5,180-1,.028Z"/>
      <path class="cls-2" d="M906.414,423.281l-0.828-.562,114-168,0.82,0.562Z"/>
      <path class="cls-2" d="M1107.44,418.765l-0.88.47-88-165,0.88-.47Z"/>
      <path class="cls-2" d="M1019.5,254.972l1,0.056-7,126-1-.056Z"/>
      <path class="cls-2" d="M663.93,48.5l0.14-.99,394,56-0.14.99Z"/>
      <path class="cls-2" d="M1058.16,103.526l-0.32.948-148-50,0.32-.947Z"/>
      <path class="cls-2" d="M909.56,54.238l0.88-.477,109,201-0.88.476Z"/>
    </g>
    <g id="balls">
      <circle class="cls-3" cx="839" cy="210" r="77"/>
      <circle class="cls-4" cx="665" cy="50" r="50"/>
      <circle class="cls-5" cx="665" cy="393" r="50"/>
      <circle class="cls-3" cx="524" cy="337" r="31"/>
      <circle class="cls-6" cx="656" cy="225" r="31"/>
      <circle class="cls-7" cx="428" cy="210" r="31"/>
      <circle class="cls-3" cx="1049" cy="102" r="31"/>
      <circle class="cls-5" cx="910.5" cy="56.5" r="19.5"/>
      <circle class="cls-3" cx="910.5" cy="423.5" r="19.5"/>
      <circle class="cls-4" cx="1107.5" cy="417.5" r="19.5"/>
      <circle class="cls-4" cx="421.5" cy="395.5" r="4.5"/>
      <circle class="cls-4" cx="298" cy="248" r="3"/>
      <circle class="cls-6" cx="126" cy="371" r="5"/>
      <circle class="cls-8" cx="1012.5" cy="381.5" r="4.5"/>
      <circle class="cls-4" cx="809" cy="347" r="4"/>
      <circle class="cls-9" cx="1018" cy="256" r="31"/>
      <circle class="cls-6" cx="288" cy="370" r="47"/>
      <circle class="cls-3" cx="162.5" cy="252.5" r="27.5"/>
      <circle class="cls-7" cx="11" cy="365" r="11"/>
    </g>
    <path id="yii" class="cls-10" d="M852.8,221.829h0l0,0.033,0-.034M841.058,212.7a51.3,51.3,0,0,1-5.88,8.875c-4.6,5.79-9.227,15.286-7.8,26.42,20.586-2.271,25.814-18.839,25.443-26.006l-0.009-.11,0.009,0.11-0.006-.007a0.025,0.025,0,0,1,0,.008,31.712,31.712,0,0,0-11.755-9.29m21.705-39.691c-8.512.319-18.86,11.011-15.32,20.982,3.749,9.894,6.149,16.932,6.652,27.972,9-9.053,17.261-18.88,17.929-30.283,0.219-9.254-4.162-16.073-9.261-18.671m-9.956,48.85a0.136,0.136,0,0,0,0,.02,0.15,0.15,0,0,1,0-.02M813.693,177.7a31.549,31.549,0,0,0-11.643,2.238c-0.674,8.71,3.051,21.662,18.155,25.784,6.36,1.883,10.815,3.043,15.64,4.8a55.153,55.153,0,0,1,5.213,2.178c3.741-7.409,3.221-12.68,2.5-17.387l0.009,0.015c0-.009,0-0.017,0-0.025,0.061,0.094.121,0.188,0.181,0.283h0q-1.012-1.6-2.126-3.116c-6.721-9.135-17.068-14.767-27.922-14.767M852.8,221.83c0,0.052.006,0.1,0.008,0.156l0.006,0.007-0.009-.11a0.136,0.136,0,0,1,0-.02l0-.033M843.56,195.3c0,0.008,0,.016,0,0.025l0.115,0.178c0.021,0.026.041,0.053,0.062,0.08-0.06-.095-0.12-0.189-0.181-0.283m-2.5,17.4a0.047,0.047,0,0,1,0,.01l0,0,0-.009,0,0m2.684-17.113q0.947,1.5,1.8,3.056l0,0.006c0.018,0.031.036,0.064,0.053,0.095l0,0.005c0.017,0.033.035,0.065,0.053,0.1a0,0,0,0,0,0,0l0.21,0.389a0.08,0.08,0,0,1,.008.016c0.014,0.024.027,0.049,0.04,0.073l0.018,0.034,0.035,0.066,0.023,0.043,0.032,0.061,0.025,0.048,0.03,0.057,0.029,0.055,0.027,0.051c0.011,0.02.022,0.042,0.032,0.062l0.024,0.045,0.042,0.081c0,0.009.008,0.016,0.013,0.025l0.115,0.223a0.134,0.134,0,0,1,.006.012l0.051,0.1,0.009,0.018,0.048,0.095,0.009,0.017,0.048,0.1a0.14,0.14,0,0,1,.009.017c0.017,0.033.034,0.066,0.05,0.1l0.006,0.011a60.24,60.24,0,0,1,6.168,20.785s0,0.007,0,.01c0,0.033.007,0.066,0.01,0.1,0,0.007,0,.014,0,0.02l0.009,0.092a0.149,0.149,0,0,0,0,.021c0,0.03,0,.059.008,0.089a0.194,0.194,0,0,0,0,.024c0,0.019,0,.038,0,0.057-0.579-10.178-6.3-22.612-9.062-26.25m9.057,26.193c0,0.019,0,.039,0,0.058h0c0-.019,0-0.038,0-0.057m-0.01-.113c0,0.03,0,.059.008,0.089,0-.03-0.006-0.059-0.008-0.089m-0.011-.113,0.009,0.092-0.009-.092m-0.011-.118c0,0.033.007,0.066,0.01,0.1,0-.032-0.007-0.065-0.01-0.1m-11.7-8.733,0,0.009a31.712,31.712,0,0,1,11.755,9.29,0.025,0.025,0,0,0,0-.008,31.909,31.909,0,0,0-11.749-9.291m5.535-12.062a60.247,60.247,0,0,1,6.168,20.785,60.24,60.24,0,0,0-6.168-20.785m-0.056-.11c0.017,0.032.034,0.066,0.05,0.1-0.016-.033-0.033-0.066-0.05-0.1m-0.057-.113c0.016,0.031.033,0.064,0.048,0.1l-0.048-.1m-0.057-.112c0.017,0.032.032,0.063,0.048,0.095l-0.048-.095m-0.06-.117c0.017,0.033.034,0.065,0.051,0.1l-0.051-.1m-0.121-.235,0.115,0.223-0.115-.223m-0.055-.106,0.042,0.081-0.042-.081m-0.056-.107,0.032,0.062c-0.01-.02-0.021-0.042-0.032-0.062m-0.056-.106,0.029,0.055-0.029-.055m-0.055-.105c0.009,0.016.017,0.032,0.025,0.048l-0.025-.048m-0.055-.1,0.023,0.043-0.023-.043m-0.053-.1,0.018,0.034-0.018-.034m-0.048-.089a0.08,0.08,0,0,1,.008.016,0.08,0.08,0,0,0-.008-0.016m-0.211-.391a0,0,0,0,0,0,0,0,0,0,0,1,0,0m-0.056-.1,0,0.005,0-.005m-0.056-.1,0,0.006,0-.006m7.251,23.113a0.194,0.194,0,0,0,0,.024,0.194,0.194,0,0,1,0-.024m-0.01-.11c0,0.007,0,.014,0,0.021a0.149,0.149,0,0,1,0-.021m-0.01-.112c0,0.008,0,.013,0,0.02s0-.013,0-0.02m-0.011-.108a0.038,0.038,0,0,1,0,.01s0-.007,0-0.01m-6.174-20.8,0.006,0.011-0.006-.011m-0.059-.116a0.14,0.14,0,0,1,.009.017,0.14,0.14,0,0,0-.009-0.017m-0.057-.113,0.009,0.017-0.009-.017m-0.057-.113,0.009,0.018-0.009-.018m-0.057-.111,0.006,0.012a0.134,0.134,0,0,0-.006-0.012m-0.128-.248,0.013,0.025c0-.009-0.009-0.016-0.013-0.025m-0.066-.126,0.024,0.045-0.024-.045m-0.059-.113,0.027,0.051-0.027-.051m-0.059-.112,0.03,0.057-0.03-.057m-0.057-.109,0.032,0.061-0.032-.061m-0.058-.109c0.011,0.022.023,0.045,0.035,0.066l-0.035-.066m-0.058-.107c0.014,0.024.027,0.049,0.04,0.073-0.013-.024-0.026-0.049-0.04-0.073m-0.218-.405,0.21,0.389-0.21-.389m-0.054-.1,0.053,0.1c-0.018-.032-0.036-0.064-0.053-0.1m-0.056-.1c0.018,0.032.036,0.063,0.053,0.095-0.017-.031-0.035-0.064-0.053-0.095m-1.808-3.063q0.947,1.5,1.805,3.057-0.858-1.558-1.8-3.056a0,0,0,0,1,0,0m-0.186-.273c0.724,4.707,1.244,9.978-2.5,17.387l0,0c3.744-7.4,3.224-12.676,2.5-17.374l-0.009-.015m0.009,0.015c0.721,4.7,1.241,9.976-2.5,17.375a31.909,31.909,0,0,1,11.749,9.291c0-.052,0-0.1-0.008-0.156,0-.019,0-0.039,0-0.058a0.194,0.194,0,0,1,0-.024c0-.03-0.006-0.059-0.008-0.089,0-.007,0-0.014,0-0.021l-0.009-.092c0-.007,0-0.012,0-0.02,0-.032-0.007-0.065-0.01-0.1a0.038,0.038,0,0,0,0-.01,60.247,60.247,0,0,0-6.168-20.785l-0.006-.011c-0.016-.033-0.033-0.067-0.05-0.1a0.14,0.14,0,0,0-.009-0.017c-0.015-.032-0.032-0.065-0.048-0.1l-0.009-.017c-0.016-.032-0.031-0.063-0.048-0.095l-0.009-.018c-0.017-.034-0.034-0.066-0.051-0.1l-0.006-.012-0.115-.223-0.013-.025-0.042-.081-0.024-.045-0.032-.062-0.027-.051-0.029-.055-0.03-.057c-0.008-.016-0.016-0.032-0.025-0.048l-0.032-.061-0.023-.043c-0.012-.021-0.024-0.044-0.035-0.066l-0.018-.034c-0.013-.024-0.026-0.049-0.04-0.073a0.08,0.08,0,0,0-.008-0.016l-0.21-.389a0,0,0,0,1,0,0l-0.053-.1,0-.005c-0.017-.032-0.035-0.063-0.053-0.095l0-.006q-0.858-1.558-1.805-3.057c-0.021-.027-0.041-0.054-0.062-0.08l-0.115-.178"/>
    <path id="docs" class="cls-10" d="M681.507,33.207h-1.321V66.252a3.953,3.953,0,0,1-3.914,3.982H652.23v1.225a2.52,2.52,0,0,0,2.5,2.541H681.5a2.52,2.52,0,0,0,2.5-2.541V35.748A2.517,2.517,0,0,0,681.507,33.207ZM662.88,68.793h13.388a2.52,2.52,0,0,0,2.5-2.541V30.541a2.521,2.521,0,0,0-2.5-2.541h-17.84v0.841a2.363,2.363,0,0,1,.014.269V36.07a3.55,3.55,0,0,1-3.516,3.579h-6.841c-0.07,0-.146,0-0.217-0.01H647V66.252a2.52,2.52,0,0,0,2.5,2.541H662.88Zm0.5-8.637h-8.729a1.2,1.2,0,0,1,0-2.4h8.734A1.2,1.2,0,0,1,663.385,60.156Zm8.733-6.129H654.656a1.2,1.2,0,0,1,0-2.4h17.462A1.2,1.2,0,0,1,672.118,54.026Zm-17.462-8.911h17.462a1.2,1.2,0,0,1,0,2.4H654.656A1.2,1.2,0,0,1,654.656,45.116Zm-6.571-6.908h6.859a2.115,2.115,0,0,0,2.078-2.114V29.11a1.06,1.06,0,0,0-1.058-1.071,1.014,1.014,0,0,0-.736.317l-7.889,8.027A1.072,1.072,0,0,0,648.085,38.208Z"/>
    <path id="video" class="cls-10" d="M288,345a25,25,0,1,0,25,25A25,25,0,0,0,288,345Zm11.963,27.007L285.05,382.266a2.436,2.436,0,0,1-3.818-2.007V359.741a2.436,2.436,0,0,1,3.818-2.007l14.913,10.259A2.437,2.437,0,0,1,299.963,372.007Z"/>
    <path id="community" class="cls-10" d="M670.172,379.2a9.068,9.068,0,0,1,4.228,6.739A7.316,7.316,0,1,0,670.172,379.2Zm-4.8,14.99a7.321,7.321,0,1,0-7.335-7.32A7.327,7.327,0,0,0,665.368,394.192Zm3.111,0.5h-6.223a9.393,9.393,0,0,0-9.39,9.374v7.6l0.02,0.119,0.524,0.164A42.811,42.811,0,0,0,666.177,414c6.9,0,10.9-1.964,11.147-2.089l0.49-.248h0.052v-7.6A9.389,9.389,0,0,0,668.479,394.691Zm12.132-7.558h-6.174a9.02,9.02,0,0,1-2.79,6.285,11.141,11.141,0,0,1,7.97,10.658v2.341a25.335,25.335,0,0,0,9.841-2.063l0.49-.248H690v-7.6A9.392,9.392,0,0,0,680.611,387.133Zm-28.111-.5a7.291,7.291,0,0,0,3.9-1.13,9.057,9.057,0,0,1,3.412-5.779c0.007-.137.02-0.273,0.02-0.411A7.333,7.333,0,1,0,652.5,386.635Zm6.586,6.783a9.02,9.02,0,0,1-2.787-6.25c-0.229-.017-0.456-0.035-0.689-0.035h-6.222a9.392,9.392,0,0,0-9.39,9.373v7.6l0.019,0.117,0.525,0.166a44.127,44.127,0,0,0,10.573,1.984v-2.295A11.144,11.144,0,0,1,659.086,393.418Z"/>
    <path id="books" class="cls-10" d="M1033,112.28a3.74,3.74,0,0,0,3.76,3.72h27.15v-1.653h-1.74v-4.133h1.74v-0.723H1066v-1.653h-1.25v-4.133H1066v-1.653h-1.36v-1.413l-2.06-3.823h2.17V94.593L1059.3,88h-19.21l-4.96,7.733a3.679,3.679,0,0,0-1.4,2.875,3.744,3.744,0,0,0,3.72,3.716,3.72,3.72,0,0,0-2.36,3.447,3.681,3.681,0,0,0,1.33,2.823A3.725,3.725,0,0,0,1033,112.28Zm2.4-13.672a2.047,2.047,0,0,1,1.07-1.792h24.87v3.859h-23.85A2.083,2.083,0,0,1,1035.4,98.608Zm3.44,5.1h24.24v4.133h-24.24A2.067,2.067,0,1,1,1038.84,103.705Zm-2.08,6.509h23.75v4.133h-23.75A2.067,2.067,0,1,1,1036.76,110.214Z"/>
    <path id="plugins" class="cls-10" d="M671.714,220.143h-2.571v-6.857a3.439,3.439,0,0,0-3.429-3.429h-6.857v-2.571a4.286,4.286,0,1,0-8.571,0v2.571h-6.857A3.439,3.439,0,0,0,640,213.286V219.8h2.571a4.629,4.629,0,1,1,0,9.257H640v6.514A3.439,3.439,0,0,0,643.429,239h6.514v-2.571a4.629,4.629,0,1,1,9.257,0V239h6.514a3.439,3.439,0,0,0,3.429-3.429v-6.857h2.571A4.286,4.286,0,1,0,671.714,220.143Z"/>
    <path id="cube" class="cls-10" d="M1029.3,260.859V249.647a2.437,2.437,0,1,0-2.81-3.656l-7.1-2.332a1.68,1.68,0,0,0,.02-0.225,2.46,2.46,0,0,0-4.92,0,1.817,1.817,0,0,0,.01.234l-6.99,2.318a2.472,2.472,0,0,0-2.05-1.087,2.432,2.432,0,0,0-.52,4.814v11.08a2.432,2.432,0,0,0,.52,4.813,2.463,2.463,0,0,0,2.27-1.5l7.08,3.259a2.453,2.453,0,1,0,4.6,1.2,2.419,2.419,0,0,0-.32-1.195l7.17-3.276a2.466,2.466,0,0,0,4.74-.923A2.432,2.432,0,0,0,1029.3,260.859Zm-23.08,0V249.647a2.535,2.535,0,0,0,1.12-.75l7.2,3.319a2.858,2.858,0,0,0-.05.512,2.439,2.439,0,0,0,1.94,2.379v2.946l-9.52,3.155A2.49,2.49,0,0,0,1006.22,260.859Zm1.52,1.413,8.69-2.881v6.8a2.361,2.361,0,0,0-.63.23l-7.91-3.642A2.786,2.786,0,0,0,1007.74,262.272Zm9.97,3.981v-6.782l8.54,2.805a2.035,2.035,0,0,0-.13.49l-8.02,3.655A2.142,2.142,0,0,0,1017.71,266.253Zm0-8.12v-3.092a2.434,2.434,0,0,0,1.7-2.313,2.1,2.1,0,0,0-.06-0.5l7.3-3.331a2.5,2.5,0,0,0,1.37.82v11.08a2.539,2.539,0,0,0-.94.418Zm8.38-10.936a0.633,0.633,0,0,0-.01.137,1.846,1.846,0,0,0,.04.408l-7.35,3.352a2.521,2.521,0,0,0-1.06-.679v-4.668a2.525,2.525,0,0,0,1.24-.9Zm-11.14-2.341a2.487,2.487,0,0,0,1.48.958v4.535a2.469,2.469,0,0,0-1.3.739l-7.25-3.339a1.915,1.915,0,0,0,.04-0.415,0.689,0.689,0,0,0-.01-0.144Z"/>
    <path id="tags" class="cls-10" d="M543.748,336.41l-10.21-10.063a0.88,0.88,0,0,0-1.2,0l-2.213,2.182a0.825,0.825,0,0,0,0,1.18l7.4,7.29-7.4,7.293a0.827,0.827,0,0,0,0,1.18l2.214,2.181a0.854,0.854,0,0,0,1.2,0l10.209-10.062A0.826,0.826,0,0,0,543.748,336.41Zm-25.89,7.882-7.4-7.292,7.4-7.291a0.826,0.826,0,0,0,0-1.18l-2.214-2.181a0.854,0.854,0,0,0-1.2,0l-10.21,10.062a0.825,0.825,0,0,0,0,1.18l10.21,10.063a0.854,0.854,0,0,0,1.2,0l2.213-2.182A0.823,0.823,0,0,0,517.858,344.292Zm11.941-21.33a0.842,0.842,0,0,0-.5-0.4l-1.8-.522a0.848,0.848,0,0,0-1.051.564l-8.331,27.805a0.827,0.827,0,0,0,.068.635,0.844,0.844,0,0,0,.5.4l1.795,0.522a0.864,0.864,0,0,0,.24.034,0.845,0.845,0,0,0,.811-0.6l8.331-27.806A0.821,0.821,0,0,0,529.8,322.962Z"/>
    <path id="search" class="cls-10" d="M442.265,220.72l-6.517-6.517c-0.035-.035-0.075-0.059-0.112-0.091a12.34,12.34,0,1,0-3.525,3.524c0.032,0.036.057,0.077,0.091,0.112l6.518,6.517A2.507,2.507,0,1,0,442.265,220.72Zm-16.932-5.328a8.059,8.059,0,1,1,8.058-8.058A8.058,8.058,0,0,1,425.333,215.392Z"/>
    <path id="browser" class="cls-10" d="M177.559,241H148.441A1.445,1.445,0,0,0,147,242.45v21.1a1.445,1.445,0,0,0,1.441,1.45h29.118A1.446,1.446,0,0,0,179,263.55v-21.1A1.445,1.445,0,0,0,177.559,241Zm-2.883,2.095a1.349,1.349,0,1,1-1.341,1.348A1.344,1.344,0,0,1,174.676,243.1Zm-3.6,0a1.349,1.349,0,1,1-1.34,1.348A1.344,1.344,0,0,1,171.072,243.1Zm-3.6,0a1.349,1.349,0,1,1-1.34,1.348A1.344,1.344,0,0,1,167.468,243.1Zm8.649,19H149.883V247.6h26.234v14.5h0Z"/>
    <path id="php" class="cls-10" d="M916.515,422.083a2.086,2.086,0,0,0-.538.053v1.7a2.121,2.121,0,0,0,.435.033,0.957,0.957,0,0,0,1.117-.938A0.859,0.859,0,0,0,916.515,422.083Zm2.332-7.1h-15.69a1.15,1.15,0,0,0-1.149,1.15V431.86a1.15,1.15,0,0,0,1.149,1.149h15.69A1.15,1.15,0,0,0,920,431.86V416.138A1.149,1.149,0,0,0,918.847,414.988Zm-11.385,9.272a2.66,2.66,0,0,1-1.865.605,3.253,3.253,0,0,1-.442-0.026V426.9h-1.286v-5.674a10.619,10.619,0,0,1,1.755-.12,2.75,2.75,0,0,1,1.754.462,1.682,1.682,0,0,1,.614,1.33A1.839,1.839,0,0,1,907.462,424.26Zm6.093,2.636H912.26v-2.407h-2.136V426.9h-1.3v-5.75h1.3v2.21h2.136v-2.21h1.295v5.75Zm4.73-2.636a2.659,2.659,0,0,1-1.865.605,3.28,3.28,0,0,1-.443-0.026V426.9h-1.284v-5.674a10.6,10.6,0,0,1,1.754-.12,2.752,2.752,0,0,1,1.754.462,1.682,1.682,0,0,1,.614,1.33A1.847,1.847,0,0,1,918.285,424.26Zm-12.593-2.177a2.065,2.065,0,0,0-.537.053v1.7a2.1,2.1,0,0,0,.435.033,0.956,0.956,0,0,0,1.115-.938A0.858,0.858,0,0,0,905.692,422.083Z"/>
    <path id="sett" class="cls-10" d="M1116.85,415.287a0.533,0.533,0,0,0-.24-0.374,0.586,0.586,0,0,0-.45-0.073,1.683,1.683,0,0,1-1.02-.059,1.7,1.7,0,0,1-.32-3.021,0.576,0.576,0,0,0,.25-0.373,0.569,0.569,0,0,0-.11-0.436,9.842,9.842,0,0,0-2.19-2.117,0.568,0.568,0,0,0-.44-0.091,0.555,0.555,0,0,0-.36.258,1.7,1.7,0,0,1-.77.674,1.679,1.679,0,0,1-.69.148,1.706,1.706,0,0,1-1.67-2.057,0.56,0.56,0,0,0-.47-0.67,9.926,9.926,0,0,0-3.04.044,0.572,0.572,0,0,0-.38.246,0.566,0.566,0,0,0-.07.44,1.686,1.686,0,0,1-.07,1.018,1.712,1.712,0,0,1-1.59,1.1,1.691,1.691,0,0,1-.61-0.114,1.673,1.673,0,0,1-.82-0.668,0.554,0.554,0,0,0-.8-0.144,9.868,9.868,0,0,0-2.13,2.188,0.531,0.531,0,0,0-.09.439,0.538,0.538,0,0,0,.26.367,1.748,1.748,0,0,1,.68.768,1.693,1.693,0,0,1,.03,1.307,1.674,1.674,0,0,1-.9.947,1.7,1.7,0,0,1-1.06.105,0.565,0.565,0,0,0-.44.086,0.553,0.553,0,0,0-.24.382,10.128,10.128,0,0,0,.04,3.061,0.582,0.582,0,0,0,.25.377,0.568,0.568,0,0,0,.45.071,1.7,1.7,0,0,1,1.04.054,1.7,1.7,0,0,1,.98,2.206,1.69,1.69,0,0,1-.69.829,0.549,0.549,0,0,0-.26.373,0.574,0.574,0,0,0,.1.44,9.931,9.931,0,0,0,2.21,2.141,0.551,0.551,0,0,0,.44.09,0.584,0.584,0,0,0,.37-0.267,1.7,1.7,0,0,1,1.47-.854,1.7,1.7,0,0,1,1.56,1.014,1.678,1.678,0,0,1,.1,1.083,0.585,0.585,0,0,0,.09.445,0.57,0.57,0,0,0,.38.238,10.161,10.161,0,0,0,1.38.1,9.869,9.869,0,0,0,1.69-.146,0.546,0.546,0,0,0,.38-0.251,0.584,0.584,0,0,0,.07-0.447,1.648,1.648,0,0,1,.05-1.053,1.713,1.713,0,0,1,1.59-1.1,1.69,1.69,0,0,1,1.44.806,0.567,0.567,0,0,0,.82.15,9.955,9.955,0,0,0,2.13-2.207,0.556,0.556,0,0,0-.18-0.807,1.7,1.7,0,0,1,.17-3.031,1.688,1.688,0,0,1,1.06-.1,0.55,0.55,0,0,0,.44-0.088,0.557,0.557,0,0,0,.24-0.384A9.781,9.781,0,0,0,1116.85,415.287Zm-8.1,5.64a4.3,4.3,0,1,1,2.18-5.675A4.281,4.281,0,0,1,1108.75,420.927Zm-1.75-7.105a3.178,3.178,0,0,0,0,6.355,3.176,3.176,0,0,0,2.9-4.469A3.18,3.18,0,0,0,1107,413.822Z"/>
    <path id="speed" class="cls-10" d="M920,57.821a10,10,0,0,0-20,0c0,0.062.017,0.117,0.018,0.179h7.758c0-.06-0.018-0.118-0.018-0.179a2.223,2.223,0,0,1,2.242-2.2,2.255,2.255,0,0,1,1.117.3l5.337-4.691,0.2,0.2-4.734,5.28a2.163,2.163,0,0,1,.319,1.116c0,0.061-.014.119-0.018,0.179h7.756C919.983,57.938,920,57.883,920,57.821Zm-17.541-.7h-0.915a0.385,0.385,0,1,1,0-.77h0.915A0.385,0.385,0,1,1,902.459,57.123Zm7.935-6.817a0.393,0.393,0,0,1-.786,0v-0.9a0.393,0.393,0,0,1,.786,0v0.9Zm8.067,6.817h-0.916a0.385,0.385,0,1,1,0-.77h0.916A0.385,0.385,0,1,1,918.461,57.123Z"/>
  </g>
  <path class="cls-11" d="M843.564,195.32c0.721,4.7,1.241,9.976-2.5,17.375a31.909,31.909,0,0,1,11.749,9.291c0-.052,0-0.1-0.008-0.156,0-.019,0-0.039,0-0.058a0.194,0.194,0,0,1,0-.024c0-.03-0.006-0.059-0.008-0.089,0-.007,0-0.014,0-0.021l-0.009-.092c0-.007,0-0.012,0-0.02,0-.032-0.007-0.065-0.01-0.1a0.038,0.038,0,0,0,0-.01,60.247,60.247,0,0,0-6.168-20.785l-0.006-.011c-0.016-.033-0.033-0.067-0.05-0.1a0.14,0.14,0,0,0-.009-0.017c-0.015-.032-0.032-0.065-0.048-0.1l-0.009-.017c-0.016-.032-0.031-0.063-0.048-0.095l-0.009-.018c-0.017-.034-0.034-0.066-0.051-0.1l-0.006-.012-0.115-.223-0.013-.025-0.042-.081-0.024-.045-0.032-.062-0.027-.051-0.029-.055-0.03-.057c-0.008-.016-0.016-0.032-0.025-0.048l-0.032-.061-0.023-.043c-0.012-.021-0.024-0.044-0.035-0.066l-0.018-.034c-0.013-.024-0.026-0.049-0.04-0.073a0.08,0.08,0,0,0-.008-0.016l-0.21-.389a0,0,0,0,1,0,0l-0.053-.1,0-.005c-0.017-.032-0.035-0.063-0.053-0.095l0-.006q-0.858-1.558-1.805-3.057c-0.021-.027-0.041-0.054-0.062-0.08l-0.115-.178"/>
</svg>
